<svg width="701" height="372" viewBox="0 0 701 372" fill="none" xmlns="http://www.w3.org/2000/svg">
<g filter="url(#filter0_d_26_6)">
<rect x="3" y="2" width="685" height="356" rx="135" fill="#EAEAEA"/>
</g>
<path d="M194.699 87.88C194.87 88.5627 194.955 89.416 194.955 90.44C194.955 91.4213 194.87 92.2747 194.699 93H181.899C181.728 92.2747 181.643 91.4213 181.643 90.44C181.643 89.416 181.728 88.5627 181.899 87.88H185.739C185.568 87.1547 185.483 86.3013 185.483 85.32C185.483 84.296 185.568 83.4427 185.739 82.76C185.568 82.0347 185.483 81.1813 185.483 80.2C185.483 79.176 185.568 78.3227 185.739 77.64C185.568 76.9147 185.483 76.0613 185.483 75.08C185.483 74.056 185.568 73.2027 185.739 72.52C185.568 71.7947 185.483 70.9413 185.483 69.96C185.483 68.936 185.568 68.0827 185.739 67.4C185.568 66.6747 185.483 65.8213 185.483 64.84C185.483 63.816 185.568 62.9627 185.739 62.28H181.899C181.728 61.5547 181.643 60.7013 181.643 59.72C181.643 58.696 181.728 57.8427 181.899 57.16H194.699C194.87 57.8427 194.955 58.696 194.955 59.72C194.955 60.7013 194.87 61.5547 194.699 62.28H190.859C191.03 62.9627 191.115 63.816 191.115 64.84C191.115 65.8213 191.03 66.6747 190.859 67.4C191.03 68.0827 191.115 68.936 191.115 69.96C191.115 70.9413 191.03 71.7947 190.859 72.52C191.03 73.2027 191.115 74.056 191.115 75.08C191.115 76.0613 191.03 76.9147 190.859 77.64C191.03 78.3227 191.115 79.176 191.115 80.2C191.115 81.1813 191.03 82.0347 190.859 82.76C191.03 83.4427 191.115 84.296 191.115 85.32C191.115 86.3013 191.03 87.1547 190.859 87.88H194.699ZM221.604 67.4C221.775 68.0827 221.86 68.936 221.86 69.96C221.86 70.9413 221.775 71.7947 221.604 72.52H213.924C214.095 73.2027 214.18 74.056 214.18 75.08C214.18 76.0613 214.095 76.9147 213.924 77.64C214.095 78.3227 214.18 79.176 214.18 80.2C214.18 81.1813 214.095 82.0347 213.924 82.76C214.095 83.4427 214.18 84.296 214.18 85.32C214.18 86.3013 214.095 87.1547 213.924 87.88H219.044C219.215 88.5627 219.3 89.416 219.3 90.44C219.3 91.4213 219.215 92.2747 219.044 93H206.244C206.073 92.2747 205.988 91.4213 205.988 90.44C205.988 89.416 206.073 88.5627 206.244 87.88H208.804C208.633 87.1547 208.548 86.3013 208.548 85.32C208.548 84.296 208.633 83.4427 208.804 82.76C208.633 82.0347 208.548 81.1813 208.548 80.2C208.548 79.176 208.633 78.3227 208.804 77.64C208.633 76.9147 208.548 76.0613 208.548 75.08C208.548 74.056 208.633 73.2027 208.804 72.52H206.244C206.073 71.7947 205.988 70.9413 205.988 69.96C205.988 68.936 206.073 68.0827 206.244 67.4H208.804C208.633 66.6747 208.548 65.8213 208.548 64.84C208.548 63.816 208.633 62.9627 208.804 62.28H211.364C211.193 61.5547 211.108 60.7013 211.108 59.72C211.108 58.696 211.193 57.8427 211.364 57.16H221.604C221.775 57.8427 221.86 58.696 221.86 59.72C221.86 60.7013 221.775 61.5547 221.604 62.28H213.924C214.095 62.9627 214.18 63.816 214.18 64.84C214.18 65.8213 214.095 66.6747 213.924 67.4H221.604ZM275.414 87.88C275.585 88.5627 275.67 89.416 275.67 90.44C275.67 91.4213 275.585 92.2747 275.414 93H270.294C270.123 92.2747 270.038 91.4213 270.038 90.44C270.038 89.416 270.123 88.5627 270.294 87.88H267.734C267.563 87.1547 267.478 86.3013 267.478 85.32C267.478 84.296 267.563 83.4427 267.734 82.76H260.054C260.225 83.4427 260.31 84.296 260.31 85.32C260.31 86.3013 260.225 87.1547 260.054 87.88H267.734C267.905 88.5627 267.99 89.416 267.99 90.44C267.99 91.4213 267.905 92.2747 267.734 93H257.494C257.323 92.2747 257.238 91.4213 257.238 90.44C257.238 89.416 257.323 88.5627 257.494 87.88H254.934C254.763 87.1547 254.678 86.3013 254.678 85.32C254.678 84.296 254.763 83.4427 254.934 82.76H257.494C257.323 82.0347 257.238 81.1813 257.238 80.2C257.238 79.176 257.323 78.3227 257.494 77.64H267.734C267.563 76.9147 267.478 76.0613 267.478 75.08C267.478 74.056 267.563 73.2027 267.734 72.52H258.774C258.603 71.7947 258.518 70.9413 258.518 69.96C258.518 68.936 258.603 68.0827 258.774 67.4H270.294C270.465 68.0827 270.55 68.936 270.55 69.96C270.55 70.9413 270.465 71.7947 270.294 72.52H272.854C273.025 73.2027 273.11 74.056 273.11 75.08C273.11 76.0613 273.025 76.9147 272.854 77.64C273.025 78.3227 273.11 79.176 273.11 80.2C273.11 81.1813 273.025 82.0347 272.854 82.76C273.025 83.4427 273.11 84.296 273.11 85.32C273.11 86.3013 273.025 87.1547 272.854 87.88H275.414ZM298.479 87.88C298.65 88.5627 298.735 89.416 298.735 90.44C298.735 91.4213 298.65 92.2747 298.479 93H288.239C288.068 92.2747 287.983 91.4213 287.983 90.44C287.983 89.416 288.068 88.5627 288.239 87.88H285.679C285.508 87.1547 285.423 86.3013 285.423 85.32C285.423 84.296 285.508 83.4427 285.679 82.76C285.508 82.0347 285.423 81.1813 285.423 80.2C285.423 79.176 285.508 78.3227 285.679 77.64C285.508 76.9147 285.423 76.0613 285.423 75.08C285.423 74.056 285.508 73.2027 285.679 72.52H280.559C280.388 71.7947 280.303 70.9413 280.303 69.96C280.303 68.936 280.388 68.0827 280.559 67.4H285.679C285.508 66.6747 285.423 65.8213 285.423 64.84C285.423 63.816 285.508 62.9627 285.679 62.28C285.508 61.5547 285.423 60.7013 285.423 59.72C285.423 58.696 285.508 57.8427 285.679 57.16H290.799C290.97 57.8427 291.055 58.696 291.055 59.72C291.055 60.7013 290.97 61.5547 290.799 62.28C290.97 62.9627 291.055 63.816 291.055 64.84C291.055 65.8213 290.97 66.6747 290.799 67.4H298.479C298.65 68.0827 298.735 68.936 298.735 69.96C298.735 70.9413 298.65 71.7947 298.479 72.52H290.799C290.97 73.2027 291.055 74.056 291.055 75.08C291.055 76.0613 290.97 76.9147 290.799 77.64C290.97 78.3227 291.055 79.176 291.055 80.2C291.055 81.1813 290.97 82.0347 290.799 82.76C290.97 83.4427 291.055 84.296 291.055 85.32C291.055 86.3013 290.97 87.1547 290.799 87.88H298.479ZM352.289 72.52C352.46 73.2027 352.545 74.056 352.545 75.08C352.545 76.0613 352.46 76.9147 352.289 77.64C352.46 78.3227 352.545 79.176 352.545 80.2C352.545 81.1813 352.46 82.0347 352.289 82.76C352.46 83.4427 352.545 84.296 352.545 85.32C352.545 86.3013 352.46 87.1547 352.289 87.88C352.46 88.5627 352.545 89.416 352.545 90.44C352.545 91.4213 352.46 92.2747 352.289 93H347.169C346.998 92.2747 346.913 91.4213 346.913 90.44C346.913 89.416 346.998 88.5627 347.169 87.88C346.998 87.1547 346.913 86.3013 346.913 85.32C346.913 84.296 346.998 83.4427 347.169 82.76C346.998 82.0347 346.913 81.1813 346.913 80.2C346.913 79.176 346.998 78.3227 347.169 77.64C346.998 76.9147 346.913 76.0613 346.913 75.08C346.913 74.056 346.998 73.2027 347.169 72.52H339.489C339.66 73.2027 339.745 74.056 339.745 75.08C339.745 76.0613 339.66 76.9147 339.489 77.64C339.66 78.3227 339.745 79.176 339.745 80.2C339.745 81.1813 339.66 82.0347 339.489 82.76C339.66 83.4427 339.745 84.296 339.745 85.32C339.745 86.3013 339.66 87.1547 339.489 87.88H342.049C342.22 88.5627 342.305 89.416 342.305 90.44C342.305 91.4213 342.22 92.2747 342.049 93H331.809C331.638 92.2747 331.553 91.4213 331.553 90.44C331.553 89.416 331.638 88.5627 331.809 87.88H334.369C334.198 87.1547 334.113 86.3013 334.113 85.32C334.113 84.296 334.198 83.4427 334.369 82.76C334.198 82.0347 334.113 81.1813 334.113 80.2C334.113 79.176 334.198 78.3227 334.369 77.64C334.198 76.9147 334.113 76.0613 334.113 75.08C334.113 74.056 334.198 73.2027 334.369 72.52H331.809C331.638 71.7947 331.553 70.9413 331.553 69.96C331.553 68.936 331.638 68.0827 331.809 67.4H334.369C334.198 66.6747 334.113 65.8213 334.113 64.84C334.113 63.816 334.198 62.9627 334.369 62.28H336.929C336.758 61.5547 336.673 60.7013 336.673 59.72C336.673 58.696 336.758 57.8427 336.929 57.16H347.169C347.34 57.8427 347.425 58.696 347.425 59.72C347.425 60.7013 347.34 61.5547 347.169 62.28H339.489C339.66 62.9627 339.745 63.816 339.745 64.84C339.745 65.8213 339.66 66.6747 339.489 67.4H352.289C352.46 68.0827 352.545 68.936 352.545 69.96C352.545 70.9413 352.46 71.7947 352.289 72.52ZM377.914 72.52C378.085 73.2027 378.17 74.056 378.17 75.08C378.17 76.0613 378.085 76.9147 377.914 77.64H372.794C372.623 76.9147 372.538 76.0613 372.538 75.08C372.538 74.056 372.623 73.2027 372.794 72.52H368.314C368.485 73.2027 368.57 74.056 368.57 75.08C368.57 76.0613 368.485 76.9147 368.314 77.64H366.394C366.565 78.3227 366.65 79.176 366.65 80.2C366.65 81.1813 366.565 82.0347 366.394 82.76C366.565 83.4427 366.65 84.296 366.65 85.32C366.65 86.3013 366.565 87.1547 366.394 87.88H370.234C370.405 88.5627 370.49 89.416 370.49 90.44C370.49 91.4213 370.405 92.2747 370.234 93H357.434C357.263 92.2747 357.178 91.4213 357.178 90.44C357.178 89.416 357.263 88.5627 357.434 87.88H361.274C361.103 87.1547 361.018 86.3013 361.018 85.32C361.018 84.296 361.103 83.4427 361.274 82.76C361.103 82.0347 361.018 81.1813 361.018 80.2C361.018 79.176 361.103 78.3227 361.274 77.64C361.103 76.9147 361.018 76.0613 361.018 75.08C361.018 74.056 361.103 73.2027 361.274 72.52H357.434C357.263 71.7947 357.178 70.9413 357.178 69.96C357.178 68.936 357.263 68.0827 357.434 67.4H363.834C364.005 68.0827 364.09 68.936 364.09 69.96C364.09 70.9413 364.005 71.7947 363.834 72.52H366.394C366.223 71.7947 366.138 70.9413 366.138 69.96C366.138 68.936 366.223 68.0827 366.394 67.4H375.994C376.165 68.0827 376.25 68.936 376.25 69.96C376.25 70.9413 376.165 71.7947 375.994 72.52H377.914ZM402.515 85.32C402.515 86.3013 402.43 87.1547 402.259 87.88H399.699C399.87 88.5627 399.955 89.416 399.955 90.44C399.955 91.4213 399.87 92.2747 399.699 93H385.619C385.448 92.2747 385.363 91.4213 385.363 90.44C385.363 89.416 385.448 88.5627 385.619 87.88H397.139C396.968 87.1547 396.883 86.3013 396.883 85.32C396.883 84.296 396.968 83.4427 397.139 82.76H386.899C386.728 82.0347 386.643 81.1813 386.643 80.2C386.643 79.176 386.728 78.3227 386.899 77.64H384.339C384.168 76.9147 384.083 76.0613 384.083 75.08C384.083 74.056 384.168 73.2027 384.339 72.52H386.899C386.728 71.7947 386.643 70.9413 386.643 69.96C386.643 68.936 386.728 68.0827 386.899 67.4H400.979C401.15 68.0827 401.235 68.936 401.235 69.96C401.235 70.9413 401.15 71.7947 400.979 72.52H389.459C389.63 73.2027 389.715 74.056 389.715 75.08C389.715 76.0613 389.63 76.9147 389.459 77.64H399.699C399.87 78.3227 399.955 79.176 399.955 80.2C399.955 81.1813 399.87 82.0347 399.699 82.76H402.259C402.43 83.4427 402.515 84.296 402.515 85.32ZM426.604 87.88C426.775 88.5627 426.86 89.416 426.86 90.44C426.86 91.4213 426.775 92.2747 426.604 93H416.364C416.193 92.2747 416.108 91.4213 416.108 90.44C416.108 89.416 416.193 88.5627 416.364 87.88H413.804C413.633 87.1547 413.548 86.3013 413.548 85.32C413.548 84.296 413.633 83.4427 413.804 82.76C413.633 82.0347 413.548 81.1813 413.548 80.2C413.548 79.176 413.633 78.3227 413.804 77.64C413.633 76.9147 413.548 76.0613 413.548 75.08C413.548 74.056 413.633 73.2027 413.804 72.52H408.684C408.513 71.7947 408.428 70.9413 408.428 69.96C408.428 68.936 408.513 68.0827 408.684 67.4H413.804C413.633 66.6747 413.548 65.8213 413.548 64.84C413.548 63.816 413.633 62.9627 413.804 62.28C413.633 61.5547 413.548 60.7013 413.548 59.72C413.548 58.696 413.633 57.8427 413.804 57.16H418.924C419.095 57.8427 419.18 58.696 419.18 59.72C419.18 60.7013 419.095 61.5547 418.924 62.28C419.095 62.9627 419.18 63.816 419.18 64.84C419.18 65.8213 419.095 66.6747 418.924 67.4H426.604C426.775 68.0827 426.86 68.936 426.86 69.96C426.86 70.9413 426.775 71.7947 426.604 72.52H418.924C419.095 73.2027 419.18 74.056 419.18 75.08C419.18 76.0613 419.095 76.9147 418.924 77.64C419.095 78.3227 419.18 79.176 419.18 80.2C419.18 81.1813 419.095 82.0347 418.924 82.76C419.095 83.4427 419.18 84.296 419.18 85.32C419.18 86.3013 419.095 87.1547 418.924 87.88H426.604ZM480.67 69.96C480.67 70.9413 480.585 71.7947 480.414 72.52H478.494C478.665 73.2027 478.75 74.056 478.75 75.08C478.75 76.0613 478.665 76.9147 478.494 77.64H476.574C476.745 78.3227 476.83 79.176 476.83 80.2C476.83 81.1813 476.745 82.0347 476.574 82.76H475.294C475.465 83.4427 475.55 84.296 475.55 85.32C475.55 86.3013 475.465 87.1547 475.294 87.88H473.374C473.545 88.5627 473.63 89.416 473.63 90.44C473.63 91.4213 473.545 92.2747 473.374 93H472.094C472.265 93.6827 472.35 94.536 472.35 95.56C472.35 96.5413 472.265 97.3947 472.094 98.12H469.534C469.705 98.8027 469.79 99.656 469.79 100.68C469.79 101.661 469.705 102.515 469.534 103.24H461.854C461.683 102.515 461.598 101.661 461.598 100.68C461.598 99.656 461.683 98.8027 461.854 98.12H466.974C466.803 97.3947 466.718 96.5413 466.718 95.56C466.718 94.536 466.803 93.6827 466.974 93C466.803 92.2747 466.718 91.4213 466.718 90.44C466.718 89.416 466.803 88.5627 466.974 87.88H464.414C464.243 87.1547 464.158 86.3013 464.158 85.32C464.158 84.296 464.243 83.4427 464.414 82.76H463.134C462.963 82.0347 462.878 81.1813 462.878 80.2C462.878 79.176 462.963 78.3227 463.134 77.64H461.214C461.043 76.9147 460.958 76.0613 460.958 75.08C460.958 74.056 461.043 73.2027 461.214 72.52H459.294C459.123 71.7947 459.038 70.9413 459.038 69.96C459.038 68.936 459.123 68.0827 459.294 67.4H464.414C464.585 68.0827 464.67 68.936 464.67 69.96C464.67 70.9413 464.585 71.7947 464.414 72.52H466.334C466.505 73.2027 466.59 74.056 466.59 75.08C466.59 76.0613 466.505 76.9147 466.334 77.64H468.254C468.425 78.3227 468.51 79.176 468.51 80.2C468.51 81.1813 468.425 82.0347 468.254 82.76C468.425 83.4427 468.51 84.296 468.51 85.32C468.51 86.3013 468.425 87.1547 468.254 87.88H470.174C470.003 87.1547 469.918 86.3013 469.918 85.32C469.918 84.296 470.003 83.4427 470.174 82.76H471.454C471.283 82.0347 471.198 81.1813 471.198 80.2C471.198 79.176 471.283 78.3227 471.454 77.64H473.374C473.203 76.9147 473.118 76.0613 473.118 75.08C473.118 74.056 473.203 73.2027 473.374 72.52H475.294C475.123 71.7947 475.038 70.9413 475.038 69.96C475.038 68.936 475.123 68.0827 475.294 67.4H480.414C480.585 68.0827 480.67 68.936 480.67 69.96ZM506.295 80.2C506.295 81.1813 506.21 82.0347 506.039 82.76H504.119C504.29 83.4427 504.375 84.296 504.375 85.32C504.375 86.3013 504.29 87.1547 504.119 87.88H500.919C501.09 88.5627 501.175 89.416 501.175 90.44C501.175 91.4213 501.09 92.2747 500.919 93H490.679C490.508 92.2747 490.423 91.4213 490.423 90.44C490.423 89.416 490.508 88.5627 490.679 87.88H487.479C487.308 87.1547 487.223 86.3013 487.223 85.32C487.223 84.296 487.308 83.4427 487.479 82.76H485.559C485.388 82.0347 485.303 81.1813 485.303 80.2C485.303 79.176 485.388 78.3227 485.559 77.64H487.479C487.308 76.9147 487.223 76.0613 487.223 75.08C487.223 74.056 487.308 73.2027 487.479 72.52H490.679C490.508 71.7947 490.423 70.9413 490.423 69.96C490.423 68.936 490.508 68.0827 490.679 67.4H500.919C501.09 68.0827 501.175 68.936 501.175 69.96C501.175 70.9413 501.09 71.7947 500.919 72.52H504.119C504.29 73.2027 504.375 74.056 504.375 75.08C504.375 76.0613 504.29 76.9147 504.119 77.64H506.039C506.21 78.3227 506.295 79.176 506.295 80.2ZM500.919 82.76C500.748 82.0347 500.663 81.1813 500.663 80.2C500.663 79.176 500.748 78.3227 500.919 77.64H498.999C498.828 76.9147 498.743 76.0613 498.743 75.08C498.743 74.056 498.828 73.2027 498.999 72.52H492.599C492.77 73.2027 492.855 74.056 492.855 75.08C492.855 76.0613 492.77 76.9147 492.599 77.64H490.679C490.85 78.3227 490.935 79.176 490.935 80.2C490.935 81.1813 490.85 82.0347 490.679 82.76H492.599C492.77 83.4427 492.855 84.296 492.855 85.32C492.855 86.3013 492.77 87.1547 492.599 87.88H498.999C498.828 87.1547 498.743 86.3013 498.743 85.32C498.743 84.296 498.828 83.4427 498.999 82.76H500.919ZM518.48 85.32C518.48 86.3013 518.395 87.1547 518.224 87.88H524.624C524.795 88.5627 524.88 89.416 524.88 90.44C524.88 91.4213 524.795 92.2747 524.624 93H514.384C514.213 92.2747 514.128 91.4213 514.128 90.44C514.128 89.416 514.213 88.5627 514.384 87.88H511.184C511.013 87.1547 510.928 86.3013 510.928 85.32C510.928 84.296 511.013 83.4427 511.184 82.76C511.013 82.0347 510.928 81.1813 510.928 80.2C510.928 79.176 511.013 78.3227 511.184 77.64C511.013 76.9147 510.928 76.0613 510.928 75.08C510.928 74.056 511.013 73.2027 511.184 72.52C511.013 71.7947 510.928 70.9413 510.928 69.96C510.928 68.936 511.013 68.0827 511.184 67.4H516.304C516.475 68.0827 516.56 68.936 516.56 69.96C516.56 70.9413 516.475 71.7947 516.304 72.52C516.475 73.2027 516.56 74.056 516.56 75.08C516.56 76.0613 516.475 76.9147 516.304 77.64C516.475 78.3227 516.56 79.176 516.56 80.2C516.56 81.1813 516.475 82.0347 516.304 82.76H518.224C518.395 83.4427 518.48 84.296 518.48 85.32ZM531.664 72.52C531.835 73.2027 531.92 74.056 531.92 75.08C531.92 76.0613 531.835 76.9147 531.664 77.64C531.835 78.3227 531.92 79.176 531.92 80.2C531.92 81.1813 531.835 82.0347 531.664 82.76C531.835 83.4427 531.92 84.296 531.92 85.32C531.92 86.3013 531.835 87.1547 531.664 87.88C531.835 88.5627 531.92 89.416 531.92 90.44C531.92 91.4213 531.835 92.2747 531.664 93H526.544C526.373 92.2747 526.288 91.4213 526.288 90.44C526.288 89.416 526.373 88.5627 526.544 87.88H524.624C524.453 87.1547 524.368 86.3013 524.368 85.32C524.368 84.296 524.453 83.4427 524.624 82.76H526.544C526.373 82.0347 526.288 81.1813 526.288 80.2C526.288 79.176 526.373 78.3227 526.544 77.64C526.373 76.9147 526.288 76.0613 526.288 75.08C526.288 74.056 526.373 73.2027 526.544 72.52C526.373 71.7947 526.288 70.9413 526.288 69.96C526.288 68.936 526.373 68.0827 526.544 67.4H531.664C531.835 68.0827 531.92 68.936 531.92 69.96C531.92 70.9413 531.835 71.7947 531.664 72.52ZM198.539 126.28C198.71 126.963 198.795 127.816 198.795 128.84C198.795 129.821 198.71 130.675 198.539 131.4C198.71 132.083 198.795 132.936 198.795 133.96C198.795 134.941 198.71 135.795 198.539 136.52C198.71 137.203 198.795 138.056 198.795 139.08C198.795 140.061 198.71 140.915 198.539 141.64C198.71 142.323 198.795 143.176 198.795 144.2C198.795 145.181 198.71 146.035 198.539 146.76C198.71 147.443 198.795 148.296 198.795 149.32C198.795 150.301 198.71 151.155 198.539 151.88C198.71 152.563 198.795 153.416 198.795 154.44C198.795 155.421 198.71 156.275 198.539 157H193.419C193.248 156.275 193.163 155.421 193.163 154.44C193.163 153.416 193.248 152.563 193.419 151.88H191.499C191.328 151.155 191.243 150.301 191.243 149.32C191.243 148.296 191.328 147.443 191.499 146.76H193.419C193.248 146.035 193.163 145.181 193.163 144.2C193.163 143.176 193.248 142.323 193.419 141.64H191.499C191.328 140.915 191.243 140.061 191.243 139.08C191.243 138.056 191.328 137.203 191.499 136.52H193.419C193.248 135.795 193.163 134.941 193.163 133.96C193.163 132.936 193.248 132.083 193.419 131.4C193.248 130.675 193.163 129.821 193.163 128.84C193.163 127.816 193.248 126.963 193.419 126.28C193.248 125.555 193.163 124.701 193.163 123.72C193.163 122.696 193.248 121.843 193.419 121.16H198.539C198.71 121.843 198.795 122.696 198.795 123.72C198.795 124.701 198.71 125.555 198.539 126.28ZM190.475 133.96C190.475 134.941 190.39 135.795 190.219 136.52H183.819C183.99 137.203 184.075 138.056 184.075 139.08C184.075 140.061 183.99 140.915 183.819 141.64H181.899C182.07 142.323 182.155 143.176 182.155 144.2C182.155 145.181 182.07 146.035 181.899 146.76H183.819C183.99 147.443 184.075 148.296 184.075 149.32C184.075 150.301 183.99 151.155 183.819 151.88H190.219C190.39 152.563 190.475 153.416 190.475 154.44C190.475 155.421 190.39 156.275 190.219 157H183.179C183.008 156.275 182.923 155.421 182.923 154.44C182.923 153.416 183.008 152.563 183.179 151.88H179.979C179.808 151.155 179.723 150.301 179.723 149.32C179.723 148.296 179.808 147.443 179.979 146.76H178.059C177.888 146.035 177.803 145.181 177.803 144.2C177.803 143.176 177.888 142.323 178.059 141.64H179.979C179.808 140.915 179.723 140.061 179.723 139.08C179.723 138.056 179.808 137.203 179.979 136.52H183.179C183.008 135.795 182.923 134.941 182.923 133.96C182.923 132.936 183.008 132.083 183.179 131.4H190.219C190.39 132.083 190.475 132.936 190.475 133.96ZM224.42 144.2C224.42 145.181 224.335 146.035 224.164 146.76H222.244C222.415 147.443 222.5 148.296 222.5 149.32C222.5 150.301 222.415 151.155 222.244 151.88H219.044C219.215 152.563 219.3 153.416 219.3 154.44C219.3 155.421 219.215 156.275 219.044 157H208.804C208.633 156.275 208.548 155.421 208.548 154.44C208.548 153.416 208.633 152.563 208.804 151.88H205.604C205.433 151.155 205.348 150.301 205.348 149.32C205.348 148.296 205.433 147.443 205.604 146.76H203.684C203.513 146.035 203.428 145.181 203.428 144.2C203.428 143.176 203.513 142.323 203.684 141.64H205.604C205.433 140.915 205.348 140.061 205.348 139.08C205.348 138.056 205.433 137.203 205.604 136.52H208.804C208.633 135.795 208.548 134.941 208.548 133.96C208.548 132.936 208.633 132.083 208.804 131.4H219.044C219.215 132.083 219.3 132.936 219.3 133.96C219.3 134.941 219.215 135.795 219.044 136.52H222.244C222.415 137.203 222.5 138.056 222.5 139.08C222.5 140.061 222.415 140.915 222.244 141.64H224.164C224.335 142.323 224.42 143.176 224.42 144.2ZM219.044 146.76C218.873 146.035 218.788 145.181 218.788 144.2C218.788 143.176 218.873 142.323 219.044 141.64H217.124C216.953 140.915 216.868 140.061 216.868 139.08C216.868 138.056 216.953 137.203 217.124 136.52H210.724C210.895 137.203 210.98 138.056 210.98 139.08C210.98 140.061 210.895 140.915 210.724 141.64H208.804C208.975 142.323 209.06 143.176 209.06 144.2C209.06 145.181 208.975 146.035 208.804 146.76H210.724C210.895 147.443 210.98 148.296 210.98 149.32C210.98 150.301 210.895 151.155 210.724 151.88H217.124C216.953 151.155 216.868 150.301 216.868 149.32C216.868 148.296 216.953 147.443 217.124 146.76H219.044ZM234.045 133.96C234.045 134.941 233.96 135.795 233.789 136.52H236.349C236.52 137.203 236.605 138.056 236.605 139.08C236.605 140.061 236.52 140.915 236.349 141.64H234.429C234.6 142.323 234.685 143.176 234.685 144.2C234.685 145.181 234.6 146.035 234.429 146.76C234.6 147.443 234.685 148.296 234.685 149.32C234.685 150.301 234.6 151.155 234.429 151.88C234.6 152.563 234.685 153.416 234.685 154.44C234.685 155.421 234.6 156.275 234.429 157H229.309C229.138 156.275 229.053 155.421 229.053 154.44C229.053 153.416 229.138 152.563 229.309 151.88C229.138 151.155 229.053 150.301 229.053 149.32C229.053 148.296 229.138 147.443 229.309 146.76C229.138 146.035 229.053 145.181 229.053 144.2C229.053 143.176 229.138 142.323 229.309 141.64C229.138 140.915 229.053 140.061 229.053 139.08C229.053 138.056 229.138 137.203 229.309 136.52C229.138 135.795 229.053 134.941 229.053 133.96C229.053 132.936 229.138 132.083 229.309 131.4H233.789C233.96 132.083 234.045 132.936 234.045 133.96ZM249.789 141.64C249.96 142.323 250.045 143.176 250.045 144.2C250.045 145.181 249.96 146.035 249.789 146.76C249.96 147.443 250.045 148.296 250.045 149.32C250.045 150.301 249.96 151.155 249.789 151.88C249.96 152.563 250.045 153.416 250.045 154.44C250.045 155.421 249.96 156.275 249.789 157H244.669C244.498 156.275 244.413 155.421 244.413 154.44C244.413 153.416 244.498 152.563 244.669 151.88C244.498 151.155 244.413 150.301 244.413 149.32C244.413 148.296 244.498 147.443 244.669 146.76C244.498 146.035 244.413 145.181 244.413 144.2C244.413 143.176 244.498 142.323 244.669 141.64C244.498 140.915 244.413 140.061 244.413 139.08C244.413 138.056 244.498 137.203 244.669 136.52H236.349C236.178 135.795 236.093 134.941 236.093 133.96C236.093 132.936 236.178 132.083 236.349 131.4H246.589C246.76 132.083 246.845 132.936 246.845 133.96C246.845 134.941 246.76 135.795 246.589 136.52H249.789C249.96 137.203 250.045 138.056 250.045 139.08C250.045 140.061 249.96 140.915 249.789 141.64ZM268.374 116.04C268.545 116.723 268.63 117.576 268.63 118.6C268.63 119.581 268.545 120.435 268.374 121.16C268.545 121.843 268.63 122.696 268.63 123.72C268.63 124.701 268.545 125.555 268.374 126.28H265.814C265.985 126.963 266.07 127.816 266.07 128.84C266.07 129.821 265.985 130.675 265.814 131.4H261.974C261.803 130.675 261.718 129.821 261.718 128.84C261.718 127.816 261.803 126.963 261.974 126.28H264.534C264.363 125.555 264.278 124.701 264.278 123.72C264.278 122.696 264.363 121.843 264.534 121.16H261.974C261.803 120.435 261.718 119.581 261.718 118.6C261.718 117.576 261.803 116.723 261.974 116.04C261.803 115.315 261.718 114.461 261.718 113.48C261.718 112.456 261.803 111.603 261.974 110.92H268.374C268.545 111.603 268.63 112.456 268.63 113.48C268.63 114.461 268.545 115.315 268.374 116.04ZM298.479 151.88C298.65 152.563 298.735 153.416 298.735 154.44C298.735 155.421 298.65 156.275 298.479 157H288.239C288.068 156.275 287.983 155.421 287.983 154.44C287.983 153.416 288.068 152.563 288.239 151.88H285.679C285.508 151.155 285.423 150.301 285.423 149.32C285.423 148.296 285.508 147.443 285.679 146.76C285.508 146.035 285.423 145.181 285.423 144.2C285.423 143.176 285.508 142.323 285.679 141.64C285.508 140.915 285.423 140.061 285.423 139.08C285.423 138.056 285.508 137.203 285.679 136.52H280.559C280.388 135.795 280.303 134.941 280.303 133.96C280.303 132.936 280.388 132.083 280.559 131.4H285.679C285.508 130.675 285.423 129.821 285.423 128.84C285.423 127.816 285.508 126.963 285.679 126.28C285.508 125.555 285.423 124.701 285.423 123.72C285.423 122.696 285.508 121.843 285.679 121.16H290.799C290.97 121.843 291.055 122.696 291.055 123.72C291.055 124.701 290.97 125.555 290.799 126.28C290.97 126.963 291.055 127.816 291.055 128.84C291.055 129.821 290.97 130.675 290.799 131.4H298.479C298.65 132.083 298.735 132.936 298.735 133.96C298.735 134.941 298.65 135.795 298.479 136.52H290.799C290.97 137.203 291.055 138.056 291.055 139.08C291.055 140.061 290.97 140.915 290.799 141.64C290.97 142.323 291.055 143.176 291.055 144.2C291.055 145.181 290.97 146.035 290.799 146.76C290.97 147.443 291.055 148.296 291.055 149.32C291.055 150.301 290.97 151.155 290.799 151.88H298.479ZM351.265 149.32C351.265 150.301 351.18 151.155 351.009 151.88H348.449C348.62 152.563 348.705 153.416 348.705 154.44C348.705 155.421 348.62 156.275 348.449 157H334.369C334.198 156.275 334.113 155.421 334.113 154.44C334.113 153.416 334.198 152.563 334.369 151.88H345.889C345.718 151.155 345.633 150.301 345.633 149.32C345.633 148.296 345.718 147.443 345.889 146.76H335.649C335.478 146.035 335.393 145.181 335.393 144.2C335.393 143.176 335.478 142.323 335.649 141.64H333.089C332.918 140.915 332.833 140.061 332.833 139.08C332.833 138.056 332.918 137.203 333.089 136.52H335.649C335.478 135.795 335.393 134.941 335.393 133.96C335.393 132.936 335.478 132.083 335.649 131.4H349.729C349.9 132.083 349.985 132.936 349.985 133.96C349.985 134.941 349.9 135.795 349.729 136.52H338.209C338.38 137.203 338.465 138.056 338.465 139.08C338.465 140.061 338.38 140.915 338.209 141.64H348.449C348.62 142.323 348.705 143.176 348.705 144.2C348.705 145.181 348.62 146.035 348.449 146.76H351.009C351.18 147.443 351.265 148.296 351.265 149.32ZM364.73 149.32C364.73 150.301 364.645 151.155 364.474 151.88H370.874C371.045 152.563 371.13 153.416 371.13 154.44C371.13 155.421 371.045 156.275 370.874 157H360.634C360.463 156.275 360.378 155.421 360.378 154.44C360.378 153.416 360.463 152.563 360.634 151.88H357.434C357.263 151.155 357.178 150.301 357.178 149.32C357.178 148.296 357.263 147.443 357.434 146.76C357.263 146.035 357.178 145.181 357.178 144.2C357.178 143.176 357.263 142.323 357.434 141.64C357.263 140.915 357.178 140.061 357.178 139.08C357.178 138.056 357.263 137.203 357.434 136.52C357.263 135.795 357.178 134.941 357.178 133.96C357.178 132.936 357.263 132.083 357.434 131.4H362.554C362.725 132.083 362.81 132.936 362.81 133.96C362.81 134.941 362.725 135.795 362.554 136.52C362.725 137.203 362.81 138.056 362.81 139.08C362.81 140.061 362.725 140.915 362.554 141.64C362.725 142.323 362.81 143.176 362.81 144.2C362.81 145.181 362.725 146.035 362.554 146.76H364.474C364.645 147.443 364.73 148.296 364.73 149.32ZM377.914 136.52C378.085 137.203 378.17 138.056 378.17 139.08C378.17 140.061 378.085 140.915 377.914 141.64C378.085 142.323 378.17 143.176 378.17 144.2C378.17 145.181 378.085 146.035 377.914 146.76C378.085 147.443 378.17 148.296 378.17 149.32C378.17 150.301 378.085 151.155 377.914 151.88C378.085 152.563 378.17 153.416 378.17 154.44C378.17 155.421 378.085 156.275 377.914 157H372.794C372.623 156.275 372.538 155.421 372.538 154.44C372.538 153.416 372.623 152.563 372.794 151.88H370.874C370.703 151.155 370.618 150.301 370.618 149.32C370.618 148.296 370.703 147.443 370.874 146.76H372.794C372.623 146.035 372.538 145.181 372.538 144.2C372.538 143.176 372.623 142.323 372.794 141.64C372.623 140.915 372.538 140.061 372.538 139.08C372.538 138.056 372.623 137.203 372.794 136.52C372.623 135.795 372.538 134.941 372.538 133.96C372.538 132.936 372.623 132.083 372.794 131.4H377.914C378.085 132.083 378.17 132.936 378.17 133.96C378.17 134.941 378.085 135.795 377.914 136.52ZM403.539 146.76C403.71 147.443 403.795 148.296 403.795 149.32C403.795 150.301 403.71 151.155 403.539 151.88H400.979C401.15 152.563 401.235 153.416 401.235 154.44C401.235 155.421 401.15 156.275 400.979 157H388.179C388.008 156.275 387.923 155.421 387.923 154.44C387.923 153.416 388.008 152.563 388.179 151.88H385.619C385.448 151.155 385.363 150.301 385.363 149.32C385.363 148.296 385.448 147.443 385.619 146.76H383.059C382.888 146.035 382.803 145.181 382.803 144.2C382.803 143.176 382.888 142.323 383.059 141.64H385.619C385.448 140.915 385.363 140.061 385.363 139.08C385.363 138.056 385.448 137.203 385.619 136.52H388.179C388.008 135.795 387.923 134.941 387.923 133.96C387.923 132.936 388.008 132.083 388.179 131.4H400.979C401.15 132.083 401.235 132.936 401.235 133.96C401.235 134.941 401.15 135.795 400.979 136.52H403.539C403.71 137.203 403.795 138.056 403.795 139.08C403.795 140.061 403.71 140.915 403.539 141.64H398.419C398.248 140.915 398.163 140.061 398.163 139.08C398.163 138.056 398.248 137.203 398.419 136.52H390.739C390.91 137.203 390.995 138.056 390.995 139.08C390.995 140.061 390.91 140.915 390.739 141.64H388.179C388.35 142.323 388.435 143.176 388.435 144.2C388.435 145.181 388.35 146.035 388.179 146.76H390.739C390.91 147.443 390.995 148.296 390.995 149.32C390.995 150.301 390.91 151.155 390.739 151.88H398.419C398.248 151.155 398.163 150.301 398.163 149.32C398.163 148.296 398.248 147.443 398.419 146.76H403.539ZM429.164 146.76C429.335 147.443 429.42 148.296 429.42 149.32C429.42 150.301 429.335 151.155 429.164 151.88H426.604C426.775 152.563 426.86 153.416 426.86 154.44C426.86 155.421 426.775 156.275 426.604 157H413.804C413.633 156.275 413.548 155.421 413.548 154.44C413.548 153.416 413.633 152.563 413.804 151.88H411.244C411.073 151.155 410.988 150.301 410.988 149.32C410.988 148.296 411.073 147.443 411.244 146.76H408.684C408.513 146.035 408.428 145.181 408.428 144.2C408.428 143.176 408.513 142.323 408.684 141.64H411.244C411.073 140.915 410.988 140.061 410.988 139.08C410.988 138.056 411.073 137.203 411.244 136.52H413.804C413.633 135.795 413.548 134.941 413.548 133.96C413.548 132.936 413.633 132.083 413.804 131.4H426.604C426.775 132.083 426.86 132.936 426.86 133.96C426.86 134.941 426.775 135.795 426.604 136.52H429.164C429.335 137.203 429.42 138.056 429.42 139.08C429.42 140.061 429.335 140.915 429.164 141.64H424.044C423.873 140.915 423.788 140.061 423.788 139.08C423.788 138.056 423.873 137.203 424.044 136.52H416.364C416.535 137.203 416.62 138.056 416.62 139.08C416.62 140.061 416.535 140.915 416.364 141.64H413.804C413.975 142.323 414.06 143.176 414.06 144.2C414.06 145.181 413.975 146.035 413.804 146.76H416.364C416.535 147.443 416.62 148.296 416.62 149.32C416.62 150.301 416.535 151.155 416.364 151.88H424.044C423.873 151.155 423.788 150.301 423.788 149.32C423.788 148.296 423.873 147.443 424.044 146.76H429.164ZM455.045 139.08C455.045 140.061 454.96 140.915 454.789 141.64C454.96 142.323 455.045 143.176 455.045 144.2C455.045 145.181 454.96 146.035 454.789 146.76H441.349C441.52 147.443 441.605 148.296 441.605 149.32C441.605 150.301 441.52 151.155 441.349 151.88H452.229C452.4 152.563 452.485 153.416 452.485 154.44C452.485 155.421 452.4 156.275 452.229 157H439.429C439.258 156.275 439.173 155.421 439.173 154.44C439.173 153.416 439.258 152.563 439.429 151.88H436.229C436.058 151.155 435.973 150.301 435.973 149.32C435.973 148.296 436.058 147.443 436.229 146.76H434.309C434.138 146.035 434.053 145.181 434.053 144.2C434.053 143.176 434.138 142.323 434.309 141.64H436.229C436.058 140.915 435.973 140.061 435.973 139.08C435.973 138.056 436.058 137.203 436.229 136.52H439.429C439.258 135.795 439.173 134.941 439.173 133.96C439.173 132.936 439.258 132.083 439.429 131.4H452.229C452.4 132.083 452.485 132.936 452.485 133.96C452.485 134.941 452.4 135.795 452.229 136.52H454.789C454.96 137.203 455.045 138.056 455.045 139.08ZM449.669 141.64C449.498 140.915 449.413 140.061 449.413 139.08C449.413 138.056 449.498 137.203 449.669 136.52H441.349C441.52 137.203 441.605 138.056 441.605 139.08C441.605 140.061 441.52 140.915 441.349 141.64H449.669ZM480.67 139.08C480.67 140.061 480.585 140.915 480.414 141.64C480.585 142.323 480.67 143.176 480.67 144.2C480.67 145.181 480.585 146.035 480.414 146.76H466.974C467.145 147.443 467.23 148.296 467.23 149.32C467.23 150.301 467.145 151.155 466.974 151.88H477.854C478.025 152.563 478.11 153.416 478.11 154.44C478.11 155.421 478.025 156.275 477.854 157H465.054C464.883 156.275 464.798 155.421 464.798 154.44C464.798 153.416 464.883 152.563 465.054 151.88H461.854C461.683 151.155 461.598 150.301 461.598 149.32C461.598 148.296 461.683 147.443 461.854 146.76H459.934C459.763 146.035 459.678 145.181 459.678 144.2C459.678 143.176 459.763 142.323 459.934 141.64H461.854C461.683 140.915 461.598 140.061 461.598 139.08C461.598 138.056 461.683 137.203 461.854 136.52H465.054C464.883 135.795 464.798 134.941 464.798 133.96C464.798 132.936 464.883 132.083 465.054 131.4H477.854C478.025 132.083 478.11 132.936 478.11 133.96C478.11 134.941 478.025 135.795 477.854 136.52H480.414C480.585 137.203 480.67 138.056 480.67 139.08ZM475.294 141.64C475.123 140.915 475.038 140.061 475.038 139.08C475.038 138.056 475.123 137.203 475.294 136.52H466.974C467.145 137.203 467.23 138.056 467.23 139.08C467.23 140.061 467.145 140.915 466.974 141.64H475.294ZM506.039 126.28C506.21 126.963 506.295 127.816 506.295 128.84C506.295 129.821 506.21 130.675 506.039 131.4C506.21 132.083 506.295 132.936 506.295 133.96C506.295 134.941 506.21 135.795 506.039 136.52C506.21 137.203 506.295 138.056 506.295 139.08C506.295 140.061 506.21 140.915 506.039 141.64C506.21 142.323 506.295 143.176 506.295 144.2C506.295 145.181 506.21 146.035 506.039 146.76C506.21 147.443 506.295 148.296 506.295 149.32C506.295 150.301 506.21 151.155 506.039 151.88C506.21 152.563 506.295 153.416 506.295 154.44C506.295 155.421 506.21 156.275 506.039 157H500.919C500.748 156.275 500.663 155.421 500.663 154.44C500.663 153.416 500.748 152.563 500.919 151.88H498.999C498.828 151.155 498.743 150.301 498.743 149.32C498.743 148.296 498.828 147.443 498.999 146.76H500.919C500.748 146.035 500.663 145.181 500.663 144.2C500.663 143.176 500.748 142.323 500.919 141.64H498.999C498.828 140.915 498.743 140.061 498.743 139.08C498.743 138.056 498.828 137.203 498.999 136.52H500.919C500.748 135.795 500.663 134.941 500.663 133.96C500.663 132.936 500.748 132.083 500.919 131.4C500.748 130.675 500.663 129.821 500.663 128.84C500.663 127.816 500.748 126.963 500.919 126.28C500.748 125.555 500.663 124.701 500.663 123.72C500.663 122.696 500.748 121.843 500.919 121.16H506.039C506.21 121.843 506.295 122.696 506.295 123.72C506.295 124.701 506.21 125.555 506.039 126.28ZM497.975 133.96C497.975 134.941 497.89 135.795 497.719 136.52H491.319C491.49 137.203 491.575 138.056 491.575 139.08C491.575 140.061 491.49 140.915 491.319 141.64H489.399C489.57 142.323 489.655 143.176 489.655 144.2C489.655 145.181 489.57 146.035 489.399 146.76H491.319C491.49 147.443 491.575 148.296 491.575 149.32C491.575 150.301 491.49 151.155 491.319 151.88H497.719C497.89 152.563 497.975 153.416 497.975 154.44C497.975 155.421 497.89 156.275 497.719 157H490.679C490.508 156.275 490.423 155.421 490.423 154.44C490.423 153.416 490.508 152.563 490.679 151.88H487.479C487.308 151.155 487.223 150.301 487.223 149.32C487.223 148.296 487.308 147.443 487.479 146.76H485.559C485.388 146.035 485.303 145.181 485.303 144.2C485.303 143.176 485.388 142.323 485.559 141.64H487.479C487.308 140.915 487.223 140.061 487.223 139.08C487.223 138.056 487.308 137.203 487.479 136.52H490.679C490.508 135.795 490.423 134.941 490.423 133.96C490.423 132.936 490.508 132.083 490.679 131.4H497.719C497.89 132.083 497.975 132.936 497.975 133.96ZM524.624 151.88C524.795 152.563 524.88 153.416 524.88 154.44C524.88 155.421 524.795 156.275 524.624 157C524.795 157.683 524.88 158.536 524.88 159.56C524.88 160.541 524.795 161.395 524.624 162.12H522.064C522.235 162.803 522.32 163.656 522.32 164.68C522.32 165.661 522.235 166.515 522.064 167.24H518.224C518.053 166.515 517.968 165.661 517.968 164.68C517.968 163.656 518.053 162.803 518.224 162.12H520.784C520.613 161.395 520.528 160.541 520.528 159.56C520.528 158.536 520.613 157.683 520.784 157H518.224C518.053 156.275 517.968 155.421 517.968 154.44C517.968 153.416 518.053 152.563 518.224 151.88C518.053 151.155 517.968 150.301 517.968 149.32C517.968 148.296 518.053 147.443 518.224 146.76H524.624C524.795 147.443 524.88 148.296 524.88 149.32C524.88 150.301 524.795 151.155 524.624 151.88ZM249.789 210.76C249.96 211.443 250.045 212.296 250.045 213.32C250.045 214.301 249.96 215.155 249.789 215.88H247.229C247.4 216.563 247.485 217.416 247.485 218.44C247.485 219.421 247.4 220.275 247.229 221H234.429C234.258 220.275 234.173 219.421 234.173 218.44C234.173 217.416 234.258 216.563 234.429 215.88H231.869C231.698 215.155 231.613 214.301 231.613 213.32C231.613 212.296 231.698 211.443 231.869 210.76H229.309C229.138 210.035 229.053 209.181 229.053 208.2C229.053 207.176 229.138 206.323 229.309 205.64H231.869C231.698 204.915 231.613 204.061 231.613 203.08C231.613 202.056 231.698 201.203 231.869 200.52H234.429C234.258 199.795 234.173 198.941 234.173 197.96C234.173 196.936 234.258 196.083 234.429 195.4H247.229C247.4 196.083 247.485 196.936 247.485 197.96C247.485 198.941 247.4 199.795 247.229 200.52H249.789C249.96 201.203 250.045 202.056 250.045 203.08C250.045 204.061 249.96 204.915 249.789 205.64H244.669C244.498 204.915 244.413 204.061 244.413 203.08C244.413 202.056 244.498 201.203 244.669 200.52H236.989C237.16 201.203 237.245 202.056 237.245 203.08C237.245 204.061 237.16 204.915 236.989 205.64H234.429C234.6 206.323 234.685 207.176 234.685 208.2C234.685 209.181 234.6 210.035 234.429 210.76H236.989C237.16 211.443 237.245 212.296 237.245 213.32C237.245 214.301 237.16 215.155 236.989 215.88H244.669C244.498 215.155 244.413 214.301 244.413 213.32C244.413 212.296 244.498 211.443 244.669 210.76H249.789ZM275.414 215.88C275.585 216.563 275.67 217.416 275.67 218.44C275.67 219.421 275.585 220.275 275.414 221H270.294C270.123 220.275 270.038 219.421 270.038 218.44C270.038 217.416 270.123 216.563 270.294 215.88H267.734C267.563 215.155 267.478 214.301 267.478 213.32C267.478 212.296 267.563 211.443 267.734 210.76H260.054C260.225 211.443 260.31 212.296 260.31 213.32C260.31 214.301 260.225 215.155 260.054 215.88H267.734C267.905 216.563 267.99 217.416 267.99 218.44C267.99 219.421 267.905 220.275 267.734 221H257.494C257.323 220.275 257.238 219.421 257.238 218.44C257.238 217.416 257.323 216.563 257.494 215.88H254.934C254.763 215.155 254.678 214.301 254.678 213.32C254.678 212.296 254.763 211.443 254.934 210.76H257.494C257.323 210.035 257.238 209.181 257.238 208.2C257.238 207.176 257.323 206.323 257.494 205.64H267.734C267.563 204.915 267.478 204.061 267.478 203.08C267.478 202.056 267.563 201.203 267.734 200.52H258.774C258.603 199.795 258.518 198.941 258.518 197.96C258.518 196.936 258.603 196.083 258.774 195.4H270.294C270.465 196.083 270.55 196.936 270.55 197.96C270.55 198.941 270.465 199.795 270.294 200.52H272.854C273.025 201.203 273.11 202.056 273.11 203.08C273.11 204.061 273.025 204.915 272.854 205.64C273.025 206.323 273.11 207.176 273.11 208.2C273.11 209.181 273.025 210.035 272.854 210.76C273.025 211.443 273.11 212.296 273.11 213.32C273.11 214.301 273.025 215.155 272.854 215.88H275.414ZM298.479 215.88C298.65 216.563 298.735 217.416 298.735 218.44C298.735 219.421 298.65 220.275 298.479 221H283.119C282.948 220.275 282.863 219.421 282.863 218.44C282.863 217.416 282.948 216.563 283.119 215.88H288.239C288.068 215.155 287.983 214.301 287.983 213.32C287.983 212.296 288.068 211.443 288.239 210.76C288.068 210.035 287.983 209.181 287.983 208.2C287.983 207.176 288.068 206.323 288.239 205.64C288.068 204.915 287.983 204.061 287.983 203.08C287.983 202.056 288.068 201.203 288.239 200.52C288.068 199.795 287.983 198.941 287.983 197.96C287.983 196.936 288.068 196.083 288.239 195.4C288.068 194.675 287.983 193.821 287.983 192.84C287.983 191.816 288.068 190.963 288.239 190.28H284.399C284.228 189.555 284.143 188.701 284.143 187.72C284.143 186.696 284.228 185.843 284.399 185.16H293.359C293.53 185.843 293.615 186.696 293.615 187.72C293.615 188.701 293.53 189.555 293.359 190.28C293.53 190.963 293.615 191.816 293.615 192.84C293.615 193.821 293.53 194.675 293.359 195.4C293.53 196.083 293.615 196.936 293.615 197.96C293.615 198.941 293.53 199.795 293.359 200.52C293.53 201.203 293.615 202.056 293.615 203.08C293.615 204.061 293.53 204.915 293.359 205.64C293.53 206.323 293.615 207.176 293.615 208.2C293.615 209.181 293.53 210.035 293.359 210.76C293.53 211.443 293.615 212.296 293.615 213.32C293.615 214.301 293.53 215.155 293.359 215.88H298.479ZM324.104 215.88C324.275 216.563 324.36 217.416 324.36 218.44C324.36 219.421 324.275 220.275 324.104 221H308.744C308.573 220.275 308.488 219.421 308.488 218.44C308.488 217.416 308.573 216.563 308.744 215.88H313.864C313.693 215.155 313.608 214.301 313.608 213.32C313.608 212.296 313.693 211.443 313.864 210.76C313.693 210.035 313.608 209.181 313.608 208.2C313.608 207.176 313.693 206.323 313.864 205.64C313.693 204.915 313.608 204.061 313.608 203.08C313.608 202.056 313.693 201.203 313.864 200.52C313.693 199.795 313.608 198.941 313.608 197.96C313.608 196.936 313.693 196.083 313.864 195.4C313.693 194.675 313.608 193.821 313.608 192.84C313.608 191.816 313.693 190.963 313.864 190.28H310.024C309.853 189.555 309.768 188.701 309.768 187.72C309.768 186.696 309.853 185.843 310.024 185.16H318.984C319.155 185.843 319.24 186.696 319.24 187.72C319.24 188.701 319.155 189.555 318.984 190.28C319.155 190.963 319.24 191.816 319.24 192.84C319.24 193.821 319.155 194.675 318.984 195.4C319.155 196.083 319.24 196.936 319.24 197.96C319.24 198.941 319.155 199.795 318.984 200.52C319.155 201.203 319.24 202.056 319.24 203.08C319.24 204.061 319.155 204.915 318.984 205.64C319.155 206.323 319.24 207.176 319.24 208.2C319.24 209.181 319.155 210.035 318.984 210.76C319.155 211.443 319.24 212.296 319.24 213.32C319.24 214.301 319.155 215.155 318.984 215.88H324.104ZM365.114 190.28C364.943 189.555 364.858 188.701 364.858 187.72C364.858 186.696 364.943 185.843 365.114 185.16H370.234C370.405 185.843 370.49 186.696 370.49 187.72C370.49 188.701 370.405 189.555 370.234 190.28H365.114ZM375.354 215.88C375.525 216.563 375.61 217.416 375.61 218.44C375.61 219.421 375.525 220.275 375.354 221H359.994C359.823 220.275 359.738 219.421 359.738 218.44C359.738 217.416 359.823 216.563 359.994 215.88H365.114C364.943 215.155 364.858 214.301 364.858 213.32C364.858 212.296 364.943 211.443 365.114 210.76C364.943 210.035 364.858 209.181 364.858 208.2C364.858 207.176 364.943 206.323 365.114 205.64C364.943 204.915 364.858 204.061 364.858 203.08C364.858 202.056 364.943 201.203 365.114 200.52H361.274C361.103 199.795 361.018 198.941 361.018 197.96C361.018 196.936 361.103 196.083 361.274 195.4H370.234C370.405 196.083 370.49 196.936 370.49 197.96C370.49 198.941 370.405 199.795 370.234 200.52C370.405 201.203 370.49 202.056 370.49 203.08C370.49 204.061 370.405 204.915 370.234 205.64C370.405 206.323 370.49 207.176 370.49 208.2C370.49 209.181 370.405 210.035 370.234 210.76C370.405 211.443 370.49 212.296 370.49 213.32C370.49 214.301 370.405 215.155 370.234 215.88H375.354ZM400.979 215.88C401.15 216.563 401.235 217.416 401.235 218.44C401.235 219.421 401.15 220.275 400.979 221H390.739C390.568 220.275 390.483 219.421 390.483 218.44C390.483 217.416 390.568 216.563 390.739 215.88H388.179C388.008 215.155 387.923 214.301 387.923 213.32C387.923 212.296 388.008 211.443 388.179 210.76C388.008 210.035 387.923 209.181 387.923 208.2C387.923 207.176 388.008 206.323 388.179 205.64C388.008 204.915 387.923 204.061 387.923 203.08C387.923 202.056 388.008 201.203 388.179 200.52H383.059C382.888 199.795 382.803 198.941 382.803 197.96C382.803 196.936 382.888 196.083 383.059 195.4H388.179C388.008 194.675 387.923 193.821 387.923 192.84C387.923 191.816 388.008 190.963 388.179 190.28C388.008 189.555 387.923 188.701 387.923 187.72C387.923 186.696 388.008 185.843 388.179 185.16H393.299C393.47 185.843 393.555 186.696 393.555 187.72C393.555 188.701 393.47 189.555 393.299 190.28C393.47 190.963 393.555 191.816 393.555 192.84C393.555 193.821 393.47 194.675 393.299 195.4H400.979C401.15 196.083 401.235 196.936 401.235 197.96C401.235 198.941 401.15 199.795 400.979 200.52H393.299C393.47 201.203 393.555 202.056 393.555 203.08C393.555 204.061 393.47 204.915 393.299 205.64C393.47 206.323 393.555 207.176 393.555 208.2C393.555 209.181 393.47 210.035 393.299 210.76C393.47 211.443 393.555 212.296 393.555 213.32C393.555 214.301 393.47 215.155 393.299 215.88H400.979ZM441.989 190.28C441.818 189.555 441.733 188.701 441.733 187.72C441.733 186.696 441.818 185.843 441.989 185.16H447.109C447.28 185.843 447.365 186.696 447.365 187.72C447.365 188.701 447.28 189.555 447.109 190.28H441.989ZM452.229 215.88C452.4 216.563 452.485 217.416 452.485 218.44C452.485 219.421 452.4 220.275 452.229 221H436.869C436.698 220.275 436.613 219.421 436.613 218.44C436.613 217.416 436.698 216.563 436.869 215.88H441.989C441.818 215.155 441.733 214.301 441.733 213.32C441.733 212.296 441.818 211.443 441.989 210.76C441.818 210.035 441.733 209.181 441.733 208.2C441.733 207.176 441.818 206.323 441.989 205.64C441.818 204.915 441.733 204.061 441.733 203.08C441.733 202.056 441.818 201.203 441.989 200.52H438.149C437.978 199.795 437.893 198.941 437.893 197.96C437.893 196.936 437.978 196.083 438.149 195.4H447.109C447.28 196.083 447.365 196.936 447.365 197.96C447.365 198.941 447.28 199.795 447.109 200.52C447.28 201.203 447.365 202.056 447.365 203.08C447.365 204.061 447.28 204.915 447.109 205.64C447.28 206.323 447.365 207.176 447.365 208.2C447.365 209.181 447.28 210.035 447.109 210.76C447.28 211.443 447.365 212.296 447.365 213.32C447.365 214.301 447.28 215.155 447.109 215.88H452.229ZM477.854 215.88C478.025 216.563 478.11 217.416 478.11 218.44C478.11 219.421 478.025 220.275 477.854 221H467.614C467.443 220.275 467.358 219.421 467.358 218.44C467.358 217.416 467.443 216.563 467.614 215.88H465.054C464.883 215.155 464.798 214.301 464.798 213.32C464.798 212.296 464.883 211.443 465.054 210.76C464.883 210.035 464.798 209.181 464.798 208.2C464.798 207.176 464.883 206.323 465.054 205.64C464.883 204.915 464.798 204.061 464.798 203.08C464.798 202.056 464.883 201.203 465.054 200.52H459.934C459.763 199.795 459.678 198.941 459.678 197.96C459.678 196.936 459.763 196.083 459.934 195.4H465.054C464.883 194.675 464.798 193.821 464.798 192.84C464.798 191.816 464.883 190.963 465.054 190.28C464.883 189.555 464.798 188.701 464.798 187.72C464.798 186.696 464.883 185.843 465.054 185.16H470.174C470.345 185.843 470.43 186.696 470.43 187.72C470.43 188.701 470.345 189.555 470.174 190.28C470.345 190.963 470.43 191.816 470.43 192.84C470.43 193.821 470.345 194.675 470.174 195.4H477.854C478.025 196.083 478.11 196.936 478.11 197.96C478.11 198.941 478.025 199.795 477.854 200.52H470.174C470.345 201.203 470.43 202.056 470.43 203.08C470.43 204.061 470.345 204.915 470.174 205.64C470.345 206.323 470.43 207.176 470.43 208.2C470.43 209.181 470.345 210.035 470.174 210.76C470.345 211.443 470.43 212.296 470.43 213.32C470.43 214.301 470.345 215.155 470.174 215.88H477.854ZM237.232 261.96C237.232 262.941 237.147 263.795 236.976 264.52H235.056C235.227 265.203 235.312 266.056 235.312 267.08C235.312 268.061 235.227 268.915 235.056 269.64H233.136C233.307 270.323 233.392 271.176 233.392 272.2C233.392 273.181 233.307 274.035 233.136 274.76H231.856C232.027 275.443 232.112 276.296 232.112 277.32C232.112 278.301 232.027 279.155 231.856 279.88H229.296C229.467 280.563 229.552 281.416 229.552 282.44C229.552 283.421 229.467 284.275 229.296 285H224.176C224.006 284.275 223.92 283.421 223.92 282.44C223.92 281.416 224.006 280.563 224.176 279.88H221.616C221.446 279.155 221.36 278.301 221.36 277.32C221.36 276.296 221.446 275.443 221.616 274.76H220.336C220.166 274.035 220.08 273.181 220.08 272.2C220.08 271.176 220.166 270.323 220.336 269.64H218.416C218.246 268.915 218.16 268.061 218.16 267.08C218.16 266.056 218.246 265.203 218.416 264.52H216.496C216.326 263.795 216.24 262.941 216.24 261.96C216.24 260.936 216.326 260.083 216.496 259.4H221.616C221.787 260.083 221.872 260.936 221.872 261.96C221.872 262.941 221.787 263.795 221.616 264.52H223.536C223.707 265.203 223.792 266.056 223.792 267.08C223.792 268.061 223.707 268.915 223.536 269.64H225.456C225.627 270.323 225.712 271.176 225.712 272.2C225.712 273.181 225.627 274.035 225.456 274.76H228.016C227.846 274.035 227.76 273.181 227.76 272.2C227.76 271.176 227.846 270.323 228.016 269.64H229.936C229.766 268.915 229.68 268.061 229.68 267.08C229.68 266.056 229.766 265.203 229.936 264.52H231.856C231.686 263.795 231.6 262.941 231.6 261.96C231.6 260.936 231.686 260.083 231.856 259.4H236.976C237.147 260.083 237.232 260.936 237.232 261.96ZM262.857 267.08C262.857 268.061 262.772 268.915 262.601 269.64C262.772 270.323 262.857 271.176 262.857 272.2C262.857 273.181 262.772 274.035 262.601 274.76H249.161C249.332 275.443 249.417 276.296 249.417 277.32C249.417 278.301 249.332 279.155 249.161 279.88H260.041C260.212 280.563 260.297 281.416 260.297 282.44C260.297 283.421 260.212 284.275 260.041 285H247.241C247.071 284.275 246.985 283.421 246.985 282.44C246.985 281.416 247.071 280.563 247.241 279.88H244.041C243.871 279.155 243.785 278.301 243.785 277.32C243.785 276.296 243.871 275.443 244.041 274.76H242.121C241.951 274.035 241.865 273.181 241.865 272.2C241.865 271.176 241.951 270.323 242.121 269.64H244.041C243.871 268.915 243.785 268.061 243.785 267.08C243.785 266.056 243.871 265.203 244.041 264.52H247.241C247.071 263.795 246.985 262.941 246.985 261.96C246.985 260.936 247.071 260.083 247.241 259.4H260.041C260.212 260.083 260.297 260.936 260.297 261.96C260.297 262.941 260.212 263.795 260.041 264.52H262.601C262.772 265.203 262.857 266.056 262.857 267.08ZM257.481 269.64C257.311 268.915 257.225 268.061 257.225 267.08C257.225 266.056 257.311 265.203 257.481 264.52H249.161C249.332 265.203 249.417 266.056 249.417 267.08C249.417 268.061 249.332 268.915 249.161 269.64H257.481ZM288.226 264.52C288.397 265.203 288.482 266.056 288.482 267.08C288.482 268.061 288.397 268.915 288.226 269.64H283.106C282.936 268.915 282.85 268.061 282.85 267.08C282.85 266.056 282.936 265.203 283.106 264.52H278.626C278.797 265.203 278.882 266.056 278.882 267.08C278.882 268.061 278.797 268.915 278.626 269.64H276.706C276.877 270.323 276.962 271.176 276.962 272.2C276.962 273.181 276.877 274.035 276.706 274.76C276.877 275.443 276.962 276.296 276.962 277.32C276.962 278.301 276.877 279.155 276.706 279.88H280.546C280.717 280.563 280.802 281.416 280.802 282.44C280.802 283.421 280.717 284.275 280.546 285H267.746C267.576 284.275 267.49 283.421 267.49 282.44C267.49 281.416 267.576 280.563 267.746 279.88H271.586C271.416 279.155 271.33 278.301 271.33 277.32C271.33 276.296 271.416 275.443 271.586 274.76C271.416 274.035 271.33 273.181 271.33 272.2C271.33 271.176 271.416 270.323 271.586 269.64C271.416 268.915 271.33 268.061 271.33 267.08C271.33 266.056 271.416 265.203 271.586 264.52H267.746C267.576 263.795 267.49 262.941 267.49 261.96C267.49 260.936 267.576 260.083 267.746 259.4H274.146C274.317 260.083 274.402 260.936 274.402 261.96C274.402 262.941 274.317 263.795 274.146 264.52H276.706C276.536 263.795 276.45 262.941 276.45 261.96C276.45 260.936 276.536 260.083 276.706 259.4H286.306C286.477 260.083 286.562 260.936 286.562 261.96C286.562 262.941 286.477 263.795 286.306 264.52H288.226ZM312.827 277.32C312.827 278.301 312.742 279.155 312.571 279.88H310.011C310.182 280.563 310.267 281.416 310.267 282.44C310.267 283.421 310.182 284.275 310.011 285H295.931C295.761 284.275 295.675 283.421 295.675 282.44C295.675 281.416 295.761 280.563 295.931 279.88H307.451C307.281 279.155 307.195 278.301 307.195 277.32C307.195 276.296 307.281 275.443 307.451 274.76H297.211C297.041 274.035 296.955 273.181 296.955 272.2C296.955 271.176 297.041 270.323 297.211 269.64H294.651C294.481 268.915 294.395 268.061 294.395 267.08C294.395 266.056 294.481 265.203 294.651 264.52H297.211C297.041 263.795 296.955 262.941 296.955 261.96C296.955 260.936 297.041 260.083 297.211 259.4H311.291C311.462 260.083 311.547 260.936 311.547 261.96C311.547 262.941 311.462 263.795 311.291 264.52H299.771C299.942 265.203 300.027 266.056 300.027 267.08C300.027 268.061 299.942 268.915 299.771 269.64H310.011C310.182 270.323 310.267 271.176 310.267 272.2C310.267 273.181 310.182 274.035 310.011 274.76H312.571C312.742 275.443 312.827 276.296 312.827 277.32ZM326.676 254.28C326.506 253.555 326.42 252.701 326.42 251.72C326.42 250.696 326.506 249.843 326.676 249.16H331.796C331.967 249.843 332.052 250.696 332.052 251.72C332.052 252.701 331.967 253.555 331.796 254.28H326.676ZM336.916 279.88C337.087 280.563 337.172 281.416 337.172 282.44C337.172 283.421 337.087 284.275 336.916 285H321.556C321.386 284.275 321.3 283.421 321.3 282.44C321.3 281.416 321.386 280.563 321.556 279.88H326.676C326.506 279.155 326.42 278.301 326.42 277.32C326.42 276.296 326.506 275.443 326.676 274.76C326.506 274.035 326.42 273.181 326.42 272.2C326.42 271.176 326.506 270.323 326.676 269.64C326.506 268.915 326.42 268.061 326.42 267.08C326.42 266.056 326.506 265.203 326.676 264.52H322.836C322.666 263.795 322.58 262.941 322.58 261.96C322.58 260.936 322.666 260.083 322.836 259.4H331.796C331.967 260.083 332.052 260.936 332.052 261.96C332.052 262.941 331.967 263.795 331.796 264.52C331.967 265.203 332.052 266.056 332.052 267.08C332.052 268.061 331.967 268.915 331.796 269.64C331.967 270.323 332.052 271.176 332.052 272.2C332.052 273.181 331.967 274.035 331.796 274.76C331.967 275.443 332.052 276.296 332.052 277.32C332.052 278.301 331.967 279.155 331.796 279.88H336.916ZM365.357 272.2C365.357 273.181 365.272 274.035 365.101 274.76H363.181C363.352 275.443 363.437 276.296 363.437 277.32C363.437 278.301 363.352 279.155 363.181 279.88H359.981C360.152 280.563 360.237 281.416 360.237 282.44C360.237 283.421 360.152 284.275 359.981 285H349.741C349.571 284.275 349.485 283.421 349.485 282.44C349.485 281.416 349.571 280.563 349.741 279.88H346.541C346.371 279.155 346.285 278.301 346.285 277.32C346.285 276.296 346.371 275.443 346.541 274.76H344.621C344.451 274.035 344.365 273.181 344.365 272.2C344.365 271.176 344.451 270.323 344.621 269.64H346.541C346.371 268.915 346.285 268.061 346.285 267.08C346.285 266.056 346.371 265.203 346.541 264.52H349.741C349.571 263.795 349.485 262.941 349.485 261.96C349.485 260.936 349.571 260.083 349.741 259.4H359.981C360.152 260.083 360.237 260.936 360.237 261.96C360.237 262.941 360.152 263.795 359.981 264.52H363.181C363.352 265.203 363.437 266.056 363.437 267.08C363.437 268.061 363.352 268.915 363.181 269.64H365.101C365.272 270.323 365.357 271.176 365.357 272.2ZM359.981 274.76C359.811 274.035 359.725 273.181 359.725 272.2C359.725 271.176 359.811 270.323 359.981 269.64H358.061C357.891 268.915 357.805 268.061 357.805 267.08C357.805 266.056 357.891 265.203 358.061 264.52H351.661C351.832 265.203 351.917 266.056 351.917 267.08C351.917 268.061 351.832 268.915 351.661 269.64H349.741C349.912 270.323 349.997 271.176 349.997 272.2C349.997 273.181 349.912 274.035 349.741 274.76H351.661C351.832 275.443 351.917 276.296 351.917 277.32C351.917 278.301 351.832 279.155 351.661 279.88H358.061C357.891 279.155 357.805 278.301 357.805 277.32C357.805 276.296 357.891 275.443 358.061 274.76H359.981ZM374.982 261.96C374.982 262.941 374.897 263.795 374.726 264.52H377.286C377.457 265.203 377.542 266.056 377.542 267.08C377.542 268.061 377.457 268.915 377.286 269.64H375.366C375.537 270.323 375.622 271.176 375.622 272.2C375.622 273.181 375.537 274.035 375.366 274.76C375.537 275.443 375.622 276.296 375.622 277.32C375.622 278.301 375.537 279.155 375.366 279.88C375.537 280.563 375.622 281.416 375.622 282.44C375.622 283.421 375.537 284.275 375.366 285H370.246C370.076 284.275 369.99 283.421 369.99 282.44C369.99 281.416 370.076 280.563 370.246 279.88C370.076 279.155 369.99 278.301 369.99 277.32C369.99 276.296 370.076 275.443 370.246 274.76C370.076 274.035 369.99 273.181 369.99 272.2C369.99 271.176 370.076 270.323 370.246 269.64C370.076 268.915 369.99 268.061 369.99 267.08C369.99 266.056 370.076 265.203 370.246 264.52C370.076 263.795 369.99 262.941 369.99 261.96C369.99 260.936 370.076 260.083 370.246 259.4H374.726C374.897 260.083 374.982 260.936 374.982 261.96ZM390.726 269.64C390.897 270.323 390.982 271.176 390.982 272.2C390.982 273.181 390.897 274.035 390.726 274.76C390.897 275.443 390.982 276.296 390.982 277.32C390.982 278.301 390.897 279.155 390.726 279.88C390.897 280.563 390.982 281.416 390.982 282.44C390.982 283.421 390.897 284.275 390.726 285H385.606C385.436 284.275 385.35 283.421 385.35 282.44C385.35 281.416 385.436 280.563 385.606 279.88C385.436 279.155 385.35 278.301 385.35 277.32C385.35 276.296 385.436 275.443 385.606 274.76C385.436 274.035 385.35 273.181 385.35 272.2C385.35 271.176 385.436 270.323 385.606 269.64C385.436 268.915 385.35 268.061 385.35 267.08C385.35 266.056 385.436 265.203 385.606 264.52H377.286C377.116 263.795 377.03 262.941 377.03 261.96C377.03 260.936 377.116 260.083 377.286 259.4H387.526C387.697 260.083 387.782 260.936 387.782 261.96C387.782 262.941 387.697 263.795 387.526 264.52H390.726C390.897 265.203 390.982 266.056 390.982 267.08C390.982 268.061 390.897 268.915 390.726 269.64ZM439.416 279.88C439.587 280.563 439.672 281.416 439.672 282.44C439.672 283.421 439.587 284.275 439.416 285H424.056C423.886 284.275 423.8 283.421 423.8 282.44C423.8 281.416 423.886 280.563 424.056 279.88H429.176C429.006 279.155 428.92 278.301 428.92 277.32C428.92 276.296 429.006 275.443 429.176 274.76C429.006 274.035 428.92 273.181 428.92 272.2C428.92 271.176 429.006 270.323 429.176 269.64C429.006 268.915 428.92 268.061 428.92 267.08C428.92 266.056 429.006 265.203 429.176 264.52C429.006 263.795 428.92 262.941 428.92 261.96C428.92 260.936 429.006 260.083 429.176 259.4H425.336C425.166 258.675 425.08 257.821 425.08 256.84C425.08 255.816 425.166 254.963 425.336 254.28H429.176C429.006 253.555 428.92 252.701 428.92 251.72C428.92 250.696 429.006 249.843 429.176 249.16H434.296C434.467 249.843 434.552 250.696 434.552 251.72C434.552 252.701 434.467 253.555 434.296 254.28C434.467 254.963 434.552 255.816 434.552 256.84C434.552 257.821 434.467 258.675 434.296 259.4C434.467 260.083 434.552 260.936 434.552 261.96C434.552 262.941 434.467 263.795 434.296 264.52C434.467 265.203 434.552 266.056 434.552 267.08C434.552 268.061 434.467 268.915 434.296 269.64C434.467 270.323 434.552 271.176 434.552 272.2C434.552 273.181 434.467 274.035 434.296 274.76C434.467 275.443 434.552 276.296 434.552 277.32C434.552 278.301 434.467 279.155 434.296 279.88H439.416ZM460.817 277.32C460.817 278.301 460.732 279.155 460.561 279.88C460.732 280.563 460.817 281.416 460.817 282.44C460.817 283.421 460.732 284.275 460.561 285H454.161C453.991 284.275 453.905 283.421 453.905 282.44C453.905 281.416 453.991 280.563 454.161 279.88C453.991 279.155 453.905 278.301 453.905 277.32C453.905 276.296 453.991 275.443 454.161 274.76H460.561C460.732 275.443 460.817 276.296 460.817 277.32ZM486.442 251.72C486.442 252.701 486.357 253.555 486.186 254.28H479.786C479.616 253.555 479.53 252.701 479.53 251.72C479.53 250.696 479.616 249.843 479.786 249.16H486.186C486.357 249.843 486.442 250.696 486.442 251.72ZM479.786 274.76C479.957 275.443 480.042 276.296 480.042 277.32C480.042 278.301 479.957 279.155 479.786 279.88H476.586C476.416 279.155 476.33 278.301 476.33 277.32C476.33 276.296 476.416 275.443 476.586 274.76H474.666C474.496 274.035 474.41 273.181 474.41 272.2C474.41 271.176 474.496 270.323 474.666 269.64C474.496 268.915 474.41 268.061 474.41 267.08C474.41 266.056 474.496 265.203 474.666 264.52C474.496 263.795 474.41 262.941 474.41 261.96C474.41 260.936 474.496 260.083 474.666 259.4H476.586C476.416 258.675 476.33 257.821 476.33 256.84C476.33 255.816 476.416 254.963 476.586 254.28H479.786C479.957 254.963 480.042 255.816 480.042 256.84C480.042 257.821 479.957 258.675 479.786 259.4C479.957 260.083 480.042 260.936 480.042 261.96C480.042 262.941 479.957 263.795 479.786 264.52C479.957 265.203 480.042 266.056 480.042 267.08C480.042 268.061 479.957 268.915 479.786 269.64C479.957 270.323 480.042 271.176 480.042 272.2C480.042 273.181 479.957 274.035 479.786 274.76ZM491.306 264.52C491.477 265.203 491.562 266.056 491.562 267.08C491.562 268.061 491.477 268.915 491.306 269.64C491.477 270.323 491.562 271.176 491.562 272.2C491.562 273.181 491.477 274.035 491.306 274.76H489.386C489.557 275.443 489.642 276.296 489.642 277.32C489.642 278.301 489.557 279.155 489.386 279.88H486.186C486.016 279.155 485.93 278.301 485.93 277.32C485.93 276.296 486.016 275.443 486.186 274.76C486.016 274.035 485.93 273.181 485.93 272.2C485.93 271.176 486.016 270.323 486.186 269.64C486.016 268.915 485.93 268.061 485.93 267.08C485.93 266.056 486.016 265.203 486.186 264.52C486.016 263.795 485.93 262.941 485.93 261.96C485.93 260.936 486.016 260.083 486.186 259.4C486.016 258.675 485.93 257.821 485.93 256.84C485.93 255.816 486.016 254.963 486.186 254.28H489.386C489.557 254.963 489.642 255.816 489.642 256.84C489.642 257.821 489.557 258.675 489.386 259.4H491.306C491.477 260.083 491.562 260.936 491.562 261.96C491.562 262.941 491.477 263.795 491.306 264.52ZM479.53 282.44C479.53 281.416 479.616 280.563 479.786 279.88H486.186C486.357 280.563 486.442 281.416 486.442 282.44C486.442 283.421 486.357 284.275 486.186 285H479.786C479.616 284.275 479.53 283.421 479.53 282.44Z" fill="black"/>
<defs>
<filter id="filter0_d_26_6" x="0" y="0" width="701" height="372" filterUnits="userSpaceOnUse" color-interpolation-filters="sRGB">
<feFlood flood-opacity="0" result="BackgroundImageFix"/>
<feColorMatrix in="SourceAlpha" type="matrix" values="0 0 0 0 0 0 0 0 0 0 0 0 0 0 0 0 0 0 127 0" result="hardAlpha"/>
<feOffset dx="5" dy="6"/>
<feGaussianBlur stdDeviation="4"/>
<feComposite in2="hardAlpha" operator="out"/>
<feColorMatrix type="matrix" values="0 0 0 0 0 0 0 0 0 0 0 0 0 0 0 0 0 0 0.25 0"/>
<feBlend mode="normal" in2="BackgroundImageFix" result="effect1_dropShadow_26_6"/>
<feBlend mode="normal" in="SourceGraphic" in2="effect1_dropShadow_26_6" result="shape"/>
</filter>
</defs>
</svg>
