<svg width="484" height="468" viewBox="0 0 484 468" fill="none" xmlns="http://www.w3.org/2000/svg">
<g opacity="0.4" filter="url(#filter0_d_26_6)">
<rect x="3" y="2" width="468" height="452" rx="145" fill="#D9D9D9"/>
</g>
<path d="M75.2 147.88C75.3707 148.563 75.456 149.416 75.456 150.44C75.456 151.421 75.3707 152.275 75.2 153H62.4C62.2293 152.275 62.144 151.421 62.144 150.44C62.144 149.416 62.2293 148.563 62.4 147.88H66.24C66.0693 147.155 65.984 146.301 65.984 145.32C65.984 144.296 66.0693 143.443 66.24 142.76C66.0693 142.035 65.984 141.181 65.984 140.2C65.984 139.176 66.0693 138.323 66.24 137.64C66.0693 136.915 65.984 136.061 65.984 135.08C65.984 134.056 66.0693 133.203 66.24 132.52C66.0693 131.795 65.984 130.941 65.984 129.96C65.984 128.936 66.0693 128.083 66.24 127.4C66.0693 126.675 65.984 125.821 65.984 124.84C65.984 123.816 66.0693 122.963 66.24 122.28H62.4C62.2293 121.555 62.144 120.701 62.144 119.72C62.144 118.696 62.2293 117.843 62.4 117.16H75.2C75.3707 117.843 75.456 118.696 75.456 119.72C75.456 120.701 75.3707 121.555 75.2 122.28H71.36C71.5307 122.963 71.616 123.816 71.616 124.84C71.616 125.821 71.5307 126.675 71.36 127.4C71.5307 128.083 71.616 128.936 71.616 129.96C71.616 130.941 71.5307 131.795 71.36 132.52C71.5307 133.203 71.616 134.056 71.616 135.08C71.616 136.061 71.5307 136.915 71.36 137.64C71.5307 138.323 71.616 139.176 71.616 140.2C71.616 141.181 71.5307 142.035 71.36 142.76C71.5307 143.443 71.616 144.296 71.616 145.32C71.616 146.301 71.5307 147.155 71.36 147.88H75.2ZM102.105 127.4C102.276 128.083 102.361 128.936 102.361 129.96C102.361 130.941 102.276 131.795 102.105 132.52H94.425C94.5957 133.203 94.681 134.056 94.681 135.08C94.681 136.061 94.5957 136.915 94.425 137.64C94.5957 138.323 94.681 139.176 94.681 140.2C94.681 141.181 94.5957 142.035 94.425 142.76C94.5957 143.443 94.681 144.296 94.681 145.32C94.681 146.301 94.5957 147.155 94.425 147.88H99.545C99.7157 148.563 99.801 149.416 99.801 150.44C99.801 151.421 99.7157 152.275 99.545 153H86.745C86.5743 152.275 86.489 151.421 86.489 150.44C86.489 149.416 86.5743 148.563 86.745 147.88H89.305C89.1343 147.155 89.049 146.301 89.049 145.32C89.049 144.296 89.1343 143.443 89.305 142.76C89.1343 142.035 89.049 141.181 89.049 140.2C89.049 139.176 89.1343 138.323 89.305 137.64C89.1343 136.915 89.049 136.061 89.049 135.08C89.049 134.056 89.1343 133.203 89.305 132.52H86.745C86.5743 131.795 86.489 130.941 86.489 129.96C86.489 128.936 86.5743 128.083 86.745 127.4H89.305C89.1343 126.675 89.049 125.821 89.049 124.84C89.049 123.816 89.1343 122.963 89.305 122.28H91.865C91.6943 121.555 91.609 120.701 91.609 119.72C91.609 118.696 91.6943 117.843 91.865 117.16H102.105C102.276 117.843 102.361 118.696 102.361 119.72C102.361 120.701 102.276 121.555 102.105 122.28H94.425C94.5957 122.963 94.681 123.816 94.681 124.84C94.681 125.821 94.5957 126.675 94.425 127.4H102.105ZM155.915 147.88C156.086 148.563 156.171 149.416 156.171 150.44C156.171 151.421 156.086 152.275 155.915 153H150.795C150.624 152.275 150.539 151.421 150.539 150.44C150.539 149.416 150.624 148.563 150.795 147.88H148.235C148.064 147.155 147.979 146.301 147.979 145.32C147.979 144.296 148.064 143.443 148.235 142.76H140.555C140.726 143.443 140.811 144.296 140.811 145.32C140.811 146.301 140.726 147.155 140.555 147.88H148.235C148.406 148.563 148.491 149.416 148.491 150.44C148.491 151.421 148.406 152.275 148.235 153H137.995C137.824 152.275 137.739 151.421 137.739 150.44C137.739 149.416 137.824 148.563 137.995 147.88H135.435C135.264 147.155 135.179 146.301 135.179 145.32C135.179 144.296 135.264 143.443 135.435 142.76H137.995C137.824 142.035 137.739 141.181 137.739 140.2C137.739 139.176 137.824 138.323 137.995 137.64H148.235C148.064 136.915 147.979 136.061 147.979 135.08C147.979 134.056 148.064 133.203 148.235 132.52H139.275C139.104 131.795 139.019 130.941 139.019 129.96C139.019 128.936 139.104 128.083 139.275 127.4H150.795C150.966 128.083 151.051 128.936 151.051 129.96C151.051 130.941 150.966 131.795 150.795 132.52H153.355C153.526 133.203 153.611 134.056 153.611 135.08C153.611 136.061 153.526 136.915 153.355 137.64C153.526 138.323 153.611 139.176 153.611 140.2C153.611 141.181 153.526 142.035 153.355 142.76C153.526 143.443 153.611 144.296 153.611 145.32C153.611 146.301 153.526 147.155 153.355 147.88H155.915ZM178.98 147.88C179.151 148.563 179.236 149.416 179.236 150.44C179.236 151.421 179.151 152.275 178.98 153H168.74C168.569 152.275 168.484 151.421 168.484 150.44C168.484 149.416 168.569 148.563 168.74 147.88H166.18C166.009 147.155 165.924 146.301 165.924 145.32C165.924 144.296 166.009 143.443 166.18 142.76C166.009 142.035 165.924 141.181 165.924 140.2C165.924 139.176 166.009 138.323 166.18 137.64C166.009 136.915 165.924 136.061 165.924 135.08C165.924 134.056 166.009 133.203 166.18 132.52H161.06C160.889 131.795 160.804 130.941 160.804 129.96C160.804 128.936 160.889 128.083 161.06 127.4H166.18C166.009 126.675 165.924 125.821 165.924 124.84C165.924 123.816 166.009 122.963 166.18 122.28C166.009 121.555 165.924 120.701 165.924 119.72C165.924 118.696 166.009 117.843 166.18 117.16H171.3C171.471 117.843 171.556 118.696 171.556 119.72C171.556 120.701 171.471 121.555 171.3 122.28C171.471 122.963 171.556 123.816 171.556 124.84C171.556 125.821 171.471 126.675 171.3 127.4H178.98C179.151 128.083 179.236 128.936 179.236 129.96C179.236 130.941 179.151 131.795 178.98 132.52H171.3C171.471 133.203 171.556 134.056 171.556 135.08C171.556 136.061 171.471 136.915 171.3 137.64C171.471 138.323 171.556 139.176 171.556 140.2C171.556 141.181 171.471 142.035 171.3 142.76C171.471 143.443 171.556 144.296 171.556 145.32C171.556 146.301 171.471 147.155 171.3 147.88H178.98ZM232.79 132.52C232.961 133.203 233.046 134.056 233.046 135.08C233.046 136.061 232.961 136.915 232.79 137.64C232.961 138.323 233.046 139.176 233.046 140.2C233.046 141.181 232.961 142.035 232.79 142.76C232.961 143.443 233.046 144.296 233.046 145.32C233.046 146.301 232.961 147.155 232.79 147.88C232.961 148.563 233.046 149.416 233.046 150.44C233.046 151.421 232.961 152.275 232.79 153H227.67C227.499 152.275 227.414 151.421 227.414 150.44C227.414 149.416 227.499 148.563 227.67 147.88C227.499 147.155 227.414 146.301 227.414 145.32C227.414 144.296 227.499 143.443 227.67 142.76C227.499 142.035 227.414 141.181 227.414 140.2C227.414 139.176 227.499 138.323 227.67 137.64C227.499 136.915 227.414 136.061 227.414 135.08C227.414 134.056 227.499 133.203 227.67 132.52H219.99C220.161 133.203 220.246 134.056 220.246 135.08C220.246 136.061 220.161 136.915 219.99 137.64C220.161 138.323 220.246 139.176 220.246 140.2C220.246 141.181 220.161 142.035 219.99 142.76C220.161 143.443 220.246 144.296 220.246 145.32C220.246 146.301 220.161 147.155 219.99 147.88H222.55C222.721 148.563 222.806 149.416 222.806 150.44C222.806 151.421 222.721 152.275 222.55 153H212.31C212.139 152.275 212.054 151.421 212.054 150.44C212.054 149.416 212.139 148.563 212.31 147.88H214.87C214.699 147.155 214.614 146.301 214.614 145.32C214.614 144.296 214.699 143.443 214.87 142.76C214.699 142.035 214.614 141.181 214.614 140.2C214.614 139.176 214.699 138.323 214.87 137.64C214.699 136.915 214.614 136.061 214.614 135.08C214.614 134.056 214.699 133.203 214.87 132.52H212.31C212.139 131.795 212.054 130.941 212.054 129.96C212.054 128.936 212.139 128.083 212.31 127.4H214.87C214.699 126.675 214.614 125.821 214.614 124.84C214.614 123.816 214.699 122.963 214.87 122.28H217.43C217.259 121.555 217.174 120.701 217.174 119.72C217.174 118.696 217.259 117.843 217.43 117.16H227.67C227.841 117.843 227.926 118.696 227.926 119.72C227.926 120.701 227.841 121.555 227.67 122.28H219.99C220.161 122.963 220.246 123.816 220.246 124.84C220.246 125.821 220.161 126.675 219.99 127.4H232.79C232.961 128.083 233.046 128.936 233.046 129.96C233.046 130.941 232.961 131.795 232.79 132.52ZM258.415 132.52C258.586 133.203 258.671 134.056 258.671 135.08C258.671 136.061 258.586 136.915 258.415 137.64H253.295C253.124 136.915 253.039 136.061 253.039 135.08C253.039 134.056 253.124 133.203 253.295 132.52H248.815C248.986 133.203 249.071 134.056 249.071 135.08C249.071 136.061 248.986 136.915 248.815 137.64H246.895C247.066 138.323 247.151 139.176 247.151 140.2C247.151 141.181 247.066 142.035 246.895 142.76C247.066 143.443 247.151 144.296 247.151 145.32C247.151 146.301 247.066 147.155 246.895 147.88H250.735C250.906 148.563 250.991 149.416 250.991 150.44C250.991 151.421 250.906 152.275 250.735 153H237.935C237.764 152.275 237.679 151.421 237.679 150.44C237.679 149.416 237.764 148.563 237.935 147.88H241.775C241.604 147.155 241.519 146.301 241.519 145.32C241.519 144.296 241.604 143.443 241.775 142.76C241.604 142.035 241.519 141.181 241.519 140.2C241.519 139.176 241.604 138.323 241.775 137.64C241.604 136.915 241.519 136.061 241.519 135.08C241.519 134.056 241.604 133.203 241.775 132.52H237.935C237.764 131.795 237.679 130.941 237.679 129.96C237.679 128.936 237.764 128.083 237.935 127.4H244.335C244.506 128.083 244.591 128.936 244.591 129.96C244.591 130.941 244.506 131.795 244.335 132.52H246.895C246.724 131.795 246.639 130.941 246.639 129.96C246.639 128.936 246.724 128.083 246.895 127.4H256.495C256.666 128.083 256.751 128.936 256.751 129.96C256.751 130.941 256.666 131.795 256.495 132.52H258.415ZM283.016 145.32C283.016 146.301 282.931 147.155 282.76 147.88H280.2C280.371 148.563 280.456 149.416 280.456 150.44C280.456 151.421 280.371 152.275 280.2 153H266.12C265.949 152.275 265.864 151.421 265.864 150.44C265.864 149.416 265.949 148.563 266.12 147.88H277.64C277.469 147.155 277.384 146.301 277.384 145.32C277.384 144.296 277.469 143.443 277.64 142.76H267.4C267.229 142.035 267.144 141.181 267.144 140.2C267.144 139.176 267.229 138.323 267.4 137.64H264.84C264.669 136.915 264.584 136.061 264.584 135.08C264.584 134.056 264.669 133.203 264.84 132.52H267.4C267.229 131.795 267.144 130.941 267.144 129.96C267.144 128.936 267.229 128.083 267.4 127.4H281.48C281.651 128.083 281.736 128.936 281.736 129.96C281.736 130.941 281.651 131.795 281.48 132.52H269.96C270.131 133.203 270.216 134.056 270.216 135.08C270.216 136.061 270.131 136.915 269.96 137.64H280.2C280.371 138.323 280.456 139.176 280.456 140.2C280.456 141.181 280.371 142.035 280.2 142.76H282.76C282.931 143.443 283.016 144.296 283.016 145.32ZM307.105 147.88C307.276 148.563 307.361 149.416 307.361 150.44C307.361 151.421 307.276 152.275 307.105 153H296.865C296.694 152.275 296.609 151.421 296.609 150.44C296.609 149.416 296.694 148.563 296.865 147.88H294.305C294.134 147.155 294.049 146.301 294.049 145.32C294.049 144.296 294.134 143.443 294.305 142.76C294.134 142.035 294.049 141.181 294.049 140.2C294.049 139.176 294.134 138.323 294.305 137.64C294.134 136.915 294.049 136.061 294.049 135.08C294.049 134.056 294.134 133.203 294.305 132.52H289.185C289.014 131.795 288.929 130.941 288.929 129.96C288.929 128.936 289.014 128.083 289.185 127.4H294.305C294.134 126.675 294.049 125.821 294.049 124.84C294.049 123.816 294.134 122.963 294.305 122.28C294.134 121.555 294.049 120.701 294.049 119.72C294.049 118.696 294.134 117.843 294.305 117.16H299.425C299.596 117.843 299.681 118.696 299.681 119.72C299.681 120.701 299.596 121.555 299.425 122.28C299.596 122.963 299.681 123.816 299.681 124.84C299.681 125.821 299.596 126.675 299.425 127.4H307.105C307.276 128.083 307.361 128.936 307.361 129.96C307.361 130.941 307.276 131.795 307.105 132.52H299.425C299.596 133.203 299.681 134.056 299.681 135.08C299.681 136.061 299.596 136.915 299.425 137.64C299.596 138.323 299.681 139.176 299.681 140.2C299.681 141.181 299.596 142.035 299.425 142.76C299.596 143.443 299.681 144.296 299.681 145.32C299.681 146.301 299.596 147.155 299.425 147.88H307.105ZM361.171 129.96C361.171 130.941 361.086 131.795 360.915 132.52H358.995C359.166 133.203 359.251 134.056 359.251 135.08C359.251 136.061 359.166 136.915 358.995 137.64H357.075C357.246 138.323 357.331 139.176 357.331 140.2C357.331 141.181 357.246 142.035 357.075 142.76H355.795C355.966 143.443 356.051 144.296 356.051 145.32C356.051 146.301 355.966 147.155 355.795 147.88H353.875C354.046 148.563 354.131 149.416 354.131 150.44C354.131 151.421 354.046 152.275 353.875 153H352.595C352.766 153.683 352.851 154.536 352.851 155.56C352.851 156.541 352.766 157.395 352.595 158.12H350.035C350.206 158.803 350.291 159.656 350.291 160.68C350.291 161.661 350.206 162.515 350.035 163.24H342.355C342.184 162.515 342.099 161.661 342.099 160.68C342.099 159.656 342.184 158.803 342.355 158.12H347.475C347.304 157.395 347.219 156.541 347.219 155.56C347.219 154.536 347.304 153.683 347.475 153C347.304 152.275 347.219 151.421 347.219 150.44C347.219 149.416 347.304 148.563 347.475 147.88H344.915C344.744 147.155 344.659 146.301 344.659 145.32C344.659 144.296 344.744 143.443 344.915 142.76H343.635C343.464 142.035 343.379 141.181 343.379 140.2C343.379 139.176 343.464 138.323 343.635 137.64H341.715C341.544 136.915 341.459 136.061 341.459 135.08C341.459 134.056 341.544 133.203 341.715 132.52H339.795C339.624 131.795 339.539 130.941 339.539 129.96C339.539 128.936 339.624 128.083 339.795 127.4H344.915C345.086 128.083 345.171 128.936 345.171 129.96C345.171 130.941 345.086 131.795 344.915 132.52H346.835C347.006 133.203 347.091 134.056 347.091 135.08C347.091 136.061 347.006 136.915 346.835 137.64H348.755C348.926 138.323 349.011 139.176 349.011 140.2C349.011 141.181 348.926 142.035 348.755 142.76C348.926 143.443 349.011 144.296 349.011 145.32C349.011 146.301 348.926 147.155 348.755 147.88H350.675C350.504 147.155 350.419 146.301 350.419 145.32C350.419 144.296 350.504 143.443 350.675 142.76H351.955C351.784 142.035 351.699 141.181 351.699 140.2C351.699 139.176 351.784 138.323 351.955 137.64H353.875C353.704 136.915 353.619 136.061 353.619 135.08C353.619 134.056 353.704 133.203 353.875 132.52H355.795C355.624 131.795 355.539 130.941 355.539 129.96C355.539 128.936 355.624 128.083 355.795 127.4H360.915C361.086 128.083 361.171 128.936 361.171 129.96ZM386.796 140.2C386.796 141.181 386.711 142.035 386.54 142.76H384.62C384.791 143.443 384.876 144.296 384.876 145.32C384.876 146.301 384.791 147.155 384.62 147.88H381.42C381.591 148.563 381.676 149.416 381.676 150.44C381.676 151.421 381.591 152.275 381.42 153H371.18C371.009 152.275 370.924 151.421 370.924 150.44C370.924 149.416 371.009 148.563 371.18 147.88H367.98C367.809 147.155 367.724 146.301 367.724 145.32C367.724 144.296 367.809 143.443 367.98 142.76H366.06C365.889 142.035 365.804 141.181 365.804 140.2C365.804 139.176 365.889 138.323 366.06 137.64H367.98C367.809 136.915 367.724 136.061 367.724 135.08C367.724 134.056 367.809 133.203 367.98 132.52H371.18C371.009 131.795 370.924 130.941 370.924 129.96C370.924 128.936 371.009 128.083 371.18 127.4H381.42C381.591 128.083 381.676 128.936 381.676 129.96C381.676 130.941 381.591 131.795 381.42 132.52H384.62C384.791 133.203 384.876 134.056 384.876 135.08C384.876 136.061 384.791 136.915 384.62 137.64H386.54C386.711 138.323 386.796 139.176 386.796 140.2ZM381.42 142.76C381.249 142.035 381.164 141.181 381.164 140.2C381.164 139.176 381.249 138.323 381.42 137.64H379.5C379.329 136.915 379.244 136.061 379.244 135.08C379.244 134.056 379.329 133.203 379.5 132.52H373.1C373.271 133.203 373.356 134.056 373.356 135.08C373.356 136.061 373.271 136.915 373.1 137.64H371.18C371.351 138.323 371.436 139.176 371.436 140.2C371.436 141.181 371.351 142.035 371.18 142.76H373.1C373.271 143.443 373.356 144.296 373.356 145.32C373.356 146.301 373.271 147.155 373.1 147.88H379.5C379.329 147.155 379.244 146.301 379.244 145.32C379.244 144.296 379.329 143.443 379.5 142.76H381.42ZM398.981 145.32C398.981 146.301 398.896 147.155 398.725 147.88H405.125C405.296 148.563 405.381 149.416 405.381 150.44C405.381 151.421 405.296 152.275 405.125 153H394.885C394.714 152.275 394.629 151.421 394.629 150.44C394.629 149.416 394.714 148.563 394.885 147.88H391.685C391.514 147.155 391.429 146.301 391.429 145.32C391.429 144.296 391.514 143.443 391.685 142.76C391.514 142.035 391.429 141.181 391.429 140.2C391.429 139.176 391.514 138.323 391.685 137.64C391.514 136.915 391.429 136.061 391.429 135.08C391.429 134.056 391.514 133.203 391.685 132.52C391.514 131.795 391.429 130.941 391.429 129.96C391.429 128.936 391.514 128.083 391.685 127.4H396.805C396.976 128.083 397.061 128.936 397.061 129.96C397.061 130.941 396.976 131.795 396.805 132.52C396.976 133.203 397.061 134.056 397.061 135.08C397.061 136.061 396.976 136.915 396.805 137.64C396.976 138.323 397.061 139.176 397.061 140.2C397.061 141.181 396.976 142.035 396.805 142.76H398.725C398.896 143.443 398.981 144.296 398.981 145.32ZM412.165 132.52C412.336 133.203 412.421 134.056 412.421 135.08C412.421 136.061 412.336 136.915 412.165 137.64C412.336 138.323 412.421 139.176 412.421 140.2C412.421 141.181 412.336 142.035 412.165 142.76C412.336 143.443 412.421 144.296 412.421 145.32C412.421 146.301 412.336 147.155 412.165 147.88C412.336 148.563 412.421 149.416 412.421 150.44C412.421 151.421 412.336 152.275 412.165 153H407.045C406.874 152.275 406.789 151.421 406.789 150.44C406.789 149.416 406.874 148.563 407.045 147.88H405.125C404.954 147.155 404.869 146.301 404.869 145.32C404.869 144.296 404.954 143.443 405.125 142.76H407.045C406.874 142.035 406.789 141.181 406.789 140.2C406.789 139.176 406.874 138.323 407.045 137.64C406.874 136.915 406.789 136.061 406.789 135.08C406.789 134.056 406.874 133.203 407.045 132.52C406.874 131.795 406.789 130.941 406.789 129.96C406.789 128.936 406.874 128.083 407.045 127.4H412.165C412.336 128.083 412.421 128.936 412.421 129.96C412.421 130.941 412.336 131.795 412.165 132.52ZM79.04 186.28C79.2107 186.963 79.296 187.816 79.296 188.84C79.296 189.821 79.2107 190.675 79.04 191.4C79.2107 192.083 79.296 192.936 79.296 193.96C79.296 194.941 79.2107 195.795 79.04 196.52C79.2107 197.203 79.296 198.056 79.296 199.08C79.296 200.061 79.2107 200.915 79.04 201.64C79.2107 202.323 79.296 203.176 79.296 204.2C79.296 205.181 79.2107 206.035 79.04 206.76C79.2107 207.443 79.296 208.296 79.296 209.32C79.296 210.301 79.2107 211.155 79.04 211.88C79.2107 212.563 79.296 213.416 79.296 214.44C79.296 215.421 79.2107 216.275 79.04 217H73.92C73.7493 216.275 73.664 215.421 73.664 214.44C73.664 213.416 73.7493 212.563 73.92 211.88H72C71.8293 211.155 71.744 210.301 71.744 209.32C71.744 208.296 71.8293 207.443 72 206.76H73.92C73.7493 206.035 73.664 205.181 73.664 204.2C73.664 203.176 73.7493 202.323 73.92 201.64H72C71.8293 200.915 71.744 200.061 71.744 199.08C71.744 198.056 71.8293 197.203 72 196.52H73.92C73.7493 195.795 73.664 194.941 73.664 193.96C73.664 192.936 73.7493 192.083 73.92 191.4C73.7493 190.675 73.664 189.821 73.664 188.84C73.664 187.816 73.7493 186.963 73.92 186.28C73.7493 185.555 73.664 184.701 73.664 183.72C73.664 182.696 73.7493 181.843 73.92 181.16H79.04C79.2107 181.843 79.296 182.696 79.296 183.72C79.296 184.701 79.2107 185.555 79.04 186.28ZM70.976 193.96C70.976 194.941 70.8907 195.795 70.72 196.52H64.32C64.4907 197.203 64.576 198.056 64.576 199.08C64.576 200.061 64.4907 200.915 64.32 201.64H62.4C62.5707 202.323 62.656 203.176 62.656 204.2C62.656 205.181 62.5707 206.035 62.4 206.76H64.32C64.4907 207.443 64.576 208.296 64.576 209.32C64.576 210.301 64.4907 211.155 64.32 211.88H70.72C70.8907 212.563 70.976 213.416 70.976 214.44C70.976 215.421 70.8907 216.275 70.72 217H63.68C63.5093 216.275 63.424 215.421 63.424 214.44C63.424 213.416 63.5093 212.563 63.68 211.88H60.48C60.3093 211.155 60.224 210.301 60.224 209.32C60.224 208.296 60.3093 207.443 60.48 206.76H58.56C58.3893 206.035 58.304 205.181 58.304 204.2C58.304 203.176 58.3893 202.323 58.56 201.64H60.48C60.3093 200.915 60.224 200.061 60.224 199.08C60.224 198.056 60.3093 197.203 60.48 196.52H63.68C63.5093 195.795 63.424 194.941 63.424 193.96C63.424 192.936 63.5093 192.083 63.68 191.4H70.72C70.8907 192.083 70.976 192.936 70.976 193.96ZM104.921 204.2C104.921 205.181 104.836 206.035 104.665 206.76H102.745C102.916 207.443 103.001 208.296 103.001 209.32C103.001 210.301 102.916 211.155 102.745 211.88H99.545C99.7157 212.563 99.801 213.416 99.801 214.44C99.801 215.421 99.7157 216.275 99.545 217H89.305C89.1343 216.275 89.049 215.421 89.049 214.44C89.049 213.416 89.1343 212.563 89.305 211.88H86.105C85.9343 211.155 85.849 210.301 85.849 209.32C85.849 208.296 85.9343 207.443 86.105 206.76H84.185C84.0143 206.035 83.929 205.181 83.929 204.2C83.929 203.176 84.0143 202.323 84.185 201.64H86.105C85.9343 200.915 85.849 200.061 85.849 199.08C85.849 198.056 85.9343 197.203 86.105 196.52H89.305C89.1343 195.795 89.049 194.941 89.049 193.96C89.049 192.936 89.1343 192.083 89.305 191.4H99.545C99.7157 192.083 99.801 192.936 99.801 193.96C99.801 194.941 99.7157 195.795 99.545 196.52H102.745C102.916 197.203 103.001 198.056 103.001 199.08C103.001 200.061 102.916 200.915 102.745 201.64H104.665C104.836 202.323 104.921 203.176 104.921 204.2ZM99.545 206.76C99.3743 206.035 99.289 205.181 99.289 204.2C99.289 203.176 99.3743 202.323 99.545 201.64H97.625C97.4543 200.915 97.369 200.061 97.369 199.08C97.369 198.056 97.4543 197.203 97.625 196.52H91.225C91.3957 197.203 91.481 198.056 91.481 199.08C91.481 200.061 91.3957 200.915 91.225 201.64H89.305C89.4757 202.323 89.561 203.176 89.561 204.2C89.561 205.181 89.4757 206.035 89.305 206.76H91.225C91.3957 207.443 91.481 208.296 91.481 209.32C91.481 210.301 91.3957 211.155 91.225 211.88H97.625C97.4543 211.155 97.369 210.301 97.369 209.32C97.369 208.296 97.4543 207.443 97.625 206.76H99.545ZM114.546 193.96C114.546 194.941 114.461 195.795 114.29 196.52H116.85C117.021 197.203 117.106 198.056 117.106 199.08C117.106 200.061 117.021 200.915 116.85 201.64H114.93C115.101 202.323 115.186 203.176 115.186 204.2C115.186 205.181 115.101 206.035 114.93 206.76C115.101 207.443 115.186 208.296 115.186 209.32C115.186 210.301 115.101 211.155 114.93 211.88C115.101 212.563 115.186 213.416 115.186 214.44C115.186 215.421 115.101 216.275 114.93 217H109.81C109.639 216.275 109.554 215.421 109.554 214.44C109.554 213.416 109.639 212.563 109.81 211.88C109.639 211.155 109.554 210.301 109.554 209.32C109.554 208.296 109.639 207.443 109.81 206.76C109.639 206.035 109.554 205.181 109.554 204.2C109.554 203.176 109.639 202.323 109.81 201.64C109.639 200.915 109.554 200.061 109.554 199.08C109.554 198.056 109.639 197.203 109.81 196.52C109.639 195.795 109.554 194.941 109.554 193.96C109.554 192.936 109.639 192.083 109.81 191.4H114.29C114.461 192.083 114.546 192.936 114.546 193.96ZM130.29 201.64C130.461 202.323 130.546 203.176 130.546 204.2C130.546 205.181 130.461 206.035 130.29 206.76C130.461 207.443 130.546 208.296 130.546 209.32C130.546 210.301 130.461 211.155 130.29 211.88C130.461 212.563 130.546 213.416 130.546 214.44C130.546 215.421 130.461 216.275 130.29 217H125.17C124.999 216.275 124.914 215.421 124.914 214.44C124.914 213.416 124.999 212.563 125.17 211.88C124.999 211.155 124.914 210.301 124.914 209.32C124.914 208.296 124.999 207.443 125.17 206.76C124.999 206.035 124.914 205.181 124.914 204.2C124.914 203.176 124.999 202.323 125.17 201.64C124.999 200.915 124.914 200.061 124.914 199.08C124.914 198.056 124.999 197.203 125.17 196.52H116.85C116.679 195.795 116.594 194.941 116.594 193.96C116.594 192.936 116.679 192.083 116.85 191.4H127.09C127.261 192.083 127.346 192.936 127.346 193.96C127.346 194.941 127.261 195.795 127.09 196.52H130.29C130.461 197.203 130.546 198.056 130.546 199.08C130.546 200.061 130.461 200.915 130.29 201.64ZM148.875 176.04C149.046 176.723 149.131 177.576 149.131 178.6C149.131 179.581 149.046 180.435 148.875 181.16C149.046 181.843 149.131 182.696 149.131 183.72C149.131 184.701 149.046 185.555 148.875 186.28H146.315C146.486 186.963 146.571 187.816 146.571 188.84C146.571 189.821 146.486 190.675 146.315 191.4H142.475C142.304 190.675 142.219 189.821 142.219 188.84C142.219 187.816 142.304 186.963 142.475 186.28H145.035C144.864 185.555 144.779 184.701 144.779 183.72C144.779 182.696 144.864 181.843 145.035 181.16H142.475C142.304 180.435 142.219 179.581 142.219 178.6C142.219 177.576 142.304 176.723 142.475 176.04C142.304 175.315 142.219 174.461 142.219 173.48C142.219 172.456 142.304 171.603 142.475 170.92H148.875C149.046 171.603 149.131 172.456 149.131 173.48C149.131 174.461 149.046 175.315 148.875 176.04ZM178.98 211.88C179.151 212.563 179.236 213.416 179.236 214.44C179.236 215.421 179.151 216.275 178.98 217H168.74C168.569 216.275 168.484 215.421 168.484 214.44C168.484 213.416 168.569 212.563 168.74 211.88H166.18C166.009 211.155 165.924 210.301 165.924 209.32C165.924 208.296 166.009 207.443 166.18 206.76C166.009 206.035 165.924 205.181 165.924 204.2C165.924 203.176 166.009 202.323 166.18 201.64C166.009 200.915 165.924 200.061 165.924 199.08C165.924 198.056 166.009 197.203 166.18 196.52H161.06C160.889 195.795 160.804 194.941 160.804 193.96C160.804 192.936 160.889 192.083 161.06 191.4H166.18C166.009 190.675 165.924 189.821 165.924 188.84C165.924 187.816 166.009 186.963 166.18 186.28C166.009 185.555 165.924 184.701 165.924 183.72C165.924 182.696 166.009 181.843 166.18 181.16H171.3C171.471 181.843 171.556 182.696 171.556 183.72C171.556 184.701 171.471 185.555 171.3 186.28C171.471 186.963 171.556 187.816 171.556 188.84C171.556 189.821 171.471 190.675 171.3 191.4H178.98C179.151 192.083 179.236 192.936 179.236 193.96C179.236 194.941 179.151 195.795 178.98 196.52H171.3C171.471 197.203 171.556 198.056 171.556 199.08C171.556 200.061 171.471 200.915 171.3 201.64C171.471 202.323 171.556 203.176 171.556 204.2C171.556 205.181 171.471 206.035 171.3 206.76C171.471 207.443 171.556 208.296 171.556 209.32C171.556 210.301 171.471 211.155 171.3 211.88H178.98ZM231.766 209.32C231.766 210.301 231.681 211.155 231.51 211.88H228.95C229.121 212.563 229.206 213.416 229.206 214.44C229.206 215.421 229.121 216.275 228.95 217H214.87C214.699 216.275 214.614 215.421 214.614 214.44C214.614 213.416 214.699 212.563 214.87 211.88H226.39C226.219 211.155 226.134 210.301 226.134 209.32C226.134 208.296 226.219 207.443 226.39 206.76H216.15C215.979 206.035 215.894 205.181 215.894 204.2C215.894 203.176 215.979 202.323 216.15 201.64H213.59C213.419 200.915 213.334 200.061 213.334 199.08C213.334 198.056 213.419 197.203 213.59 196.52H216.15C215.979 195.795 215.894 194.941 215.894 193.96C215.894 192.936 215.979 192.083 216.15 191.4H230.23C230.401 192.083 230.486 192.936 230.486 193.96C230.486 194.941 230.401 195.795 230.23 196.52H218.71C218.881 197.203 218.966 198.056 218.966 199.08C218.966 200.061 218.881 200.915 218.71 201.64H228.95C229.121 202.323 229.206 203.176 229.206 204.2C229.206 205.181 229.121 206.035 228.95 206.76H231.51C231.681 207.443 231.766 208.296 231.766 209.32ZM245.231 209.32C245.231 210.301 245.146 211.155 244.975 211.88H251.375C251.546 212.563 251.631 213.416 251.631 214.44C251.631 215.421 251.546 216.275 251.375 217H241.135C240.964 216.275 240.879 215.421 240.879 214.44C240.879 213.416 240.964 212.563 241.135 211.88H237.935C237.764 211.155 237.679 210.301 237.679 209.32C237.679 208.296 237.764 207.443 237.935 206.76C237.764 206.035 237.679 205.181 237.679 204.2C237.679 203.176 237.764 202.323 237.935 201.64C237.764 200.915 237.679 200.061 237.679 199.08C237.679 198.056 237.764 197.203 237.935 196.52C237.764 195.795 237.679 194.941 237.679 193.96C237.679 192.936 237.764 192.083 237.935 191.4H243.055C243.226 192.083 243.311 192.936 243.311 193.96C243.311 194.941 243.226 195.795 243.055 196.52C243.226 197.203 243.311 198.056 243.311 199.08C243.311 200.061 243.226 200.915 243.055 201.64C243.226 202.323 243.311 203.176 243.311 204.2C243.311 205.181 243.226 206.035 243.055 206.76H244.975C245.146 207.443 245.231 208.296 245.231 209.32ZM258.415 196.52C258.586 197.203 258.671 198.056 258.671 199.08C258.671 200.061 258.586 200.915 258.415 201.64C258.586 202.323 258.671 203.176 258.671 204.2C258.671 205.181 258.586 206.035 258.415 206.76C258.586 207.443 258.671 208.296 258.671 209.32C258.671 210.301 258.586 211.155 258.415 211.88C258.586 212.563 258.671 213.416 258.671 214.44C258.671 215.421 258.586 216.275 258.415 217H253.295C253.124 216.275 253.039 215.421 253.039 214.44C253.039 213.416 253.124 212.563 253.295 211.88H251.375C251.204 211.155 251.119 210.301 251.119 209.32C251.119 208.296 251.204 207.443 251.375 206.76H253.295C253.124 206.035 253.039 205.181 253.039 204.2C253.039 203.176 253.124 202.323 253.295 201.64C253.124 200.915 253.039 200.061 253.039 199.08C253.039 198.056 253.124 197.203 253.295 196.52C253.124 195.795 253.039 194.941 253.039 193.96C253.039 192.936 253.124 192.083 253.295 191.4H258.415C258.586 192.083 258.671 192.936 258.671 193.96C258.671 194.941 258.586 195.795 258.415 196.52ZM284.04 206.76C284.211 207.443 284.296 208.296 284.296 209.32C284.296 210.301 284.211 211.155 284.04 211.88H281.48C281.651 212.563 281.736 213.416 281.736 214.44C281.736 215.421 281.651 216.275 281.48 217H268.68C268.509 216.275 268.424 215.421 268.424 214.44C268.424 213.416 268.509 212.563 268.68 211.88H266.12C265.949 211.155 265.864 210.301 265.864 209.32C265.864 208.296 265.949 207.443 266.12 206.76H263.56C263.389 206.035 263.304 205.181 263.304 204.2C263.304 203.176 263.389 202.323 263.56 201.64H266.12C265.949 200.915 265.864 200.061 265.864 199.08C265.864 198.056 265.949 197.203 266.12 196.52H268.68C268.509 195.795 268.424 194.941 268.424 193.96C268.424 192.936 268.509 192.083 268.68 191.4H281.48C281.651 192.083 281.736 192.936 281.736 193.96C281.736 194.941 281.651 195.795 281.48 196.52H284.04C284.211 197.203 284.296 198.056 284.296 199.08C284.296 200.061 284.211 200.915 284.04 201.64H278.92C278.749 200.915 278.664 200.061 278.664 199.08C278.664 198.056 278.749 197.203 278.92 196.52H271.24C271.411 197.203 271.496 198.056 271.496 199.08C271.496 200.061 271.411 200.915 271.24 201.64H268.68C268.851 202.323 268.936 203.176 268.936 204.2C268.936 205.181 268.851 206.035 268.68 206.76H271.24C271.411 207.443 271.496 208.296 271.496 209.32C271.496 210.301 271.411 211.155 271.24 211.88H278.92C278.749 211.155 278.664 210.301 278.664 209.32C278.664 208.296 278.749 207.443 278.92 206.76H284.04ZM309.665 206.76C309.836 207.443 309.921 208.296 309.921 209.32C309.921 210.301 309.836 211.155 309.665 211.88H307.105C307.276 212.563 307.361 213.416 307.361 214.44C307.361 215.421 307.276 216.275 307.105 217H294.305C294.134 216.275 294.049 215.421 294.049 214.44C294.049 213.416 294.134 212.563 294.305 211.88H291.745C291.574 211.155 291.489 210.301 291.489 209.32C291.489 208.296 291.574 207.443 291.745 206.76H289.185C289.014 206.035 288.929 205.181 288.929 204.2C288.929 203.176 289.014 202.323 289.185 201.64H291.745C291.574 200.915 291.489 200.061 291.489 199.08C291.489 198.056 291.574 197.203 291.745 196.52H294.305C294.134 195.795 294.049 194.941 294.049 193.96C294.049 192.936 294.134 192.083 294.305 191.4H307.105C307.276 192.083 307.361 192.936 307.361 193.96C307.361 194.941 307.276 195.795 307.105 196.52H309.665C309.836 197.203 309.921 198.056 309.921 199.08C309.921 200.061 309.836 200.915 309.665 201.64H304.545C304.374 200.915 304.289 200.061 304.289 199.08C304.289 198.056 304.374 197.203 304.545 196.52H296.865C297.036 197.203 297.121 198.056 297.121 199.08C297.121 200.061 297.036 200.915 296.865 201.64H294.305C294.476 202.323 294.561 203.176 294.561 204.2C294.561 205.181 294.476 206.035 294.305 206.76H296.865C297.036 207.443 297.121 208.296 297.121 209.32C297.121 210.301 297.036 211.155 296.865 211.88H304.545C304.374 211.155 304.289 210.301 304.289 209.32C304.289 208.296 304.374 207.443 304.545 206.76H309.665ZM335.546 199.08C335.546 200.061 335.461 200.915 335.29 201.64C335.461 202.323 335.546 203.176 335.546 204.2C335.546 205.181 335.461 206.035 335.29 206.76H321.85C322.021 207.443 322.106 208.296 322.106 209.32C322.106 210.301 322.021 211.155 321.85 211.88H332.73C332.901 212.563 332.986 213.416 332.986 214.44C332.986 215.421 332.901 216.275 332.73 217H319.93C319.759 216.275 319.674 215.421 319.674 214.44C319.674 213.416 319.759 212.563 319.93 211.88H316.73C316.559 211.155 316.474 210.301 316.474 209.32C316.474 208.296 316.559 207.443 316.73 206.76H314.81C314.639 206.035 314.554 205.181 314.554 204.2C314.554 203.176 314.639 202.323 314.81 201.64H316.73C316.559 200.915 316.474 200.061 316.474 199.08C316.474 198.056 316.559 197.203 316.73 196.52H319.93C319.759 195.795 319.674 194.941 319.674 193.96C319.674 192.936 319.759 192.083 319.93 191.4H332.73C332.901 192.083 332.986 192.936 332.986 193.96C332.986 194.941 332.901 195.795 332.73 196.52H335.29C335.461 197.203 335.546 198.056 335.546 199.08ZM330.17 201.64C329.999 200.915 329.914 200.061 329.914 199.08C329.914 198.056 329.999 197.203 330.17 196.52H321.85C322.021 197.203 322.106 198.056 322.106 199.08C322.106 200.061 322.021 200.915 321.85 201.64H330.17ZM361.171 199.08C361.171 200.061 361.086 200.915 360.915 201.64C361.086 202.323 361.171 203.176 361.171 204.2C361.171 205.181 361.086 206.035 360.915 206.76H347.475C347.646 207.443 347.731 208.296 347.731 209.32C347.731 210.301 347.646 211.155 347.475 211.88H358.355C358.526 212.563 358.611 213.416 358.611 214.44C358.611 215.421 358.526 216.275 358.355 217H345.555C345.384 216.275 345.299 215.421 345.299 214.44C345.299 213.416 345.384 212.563 345.555 211.88H342.355C342.184 211.155 342.099 210.301 342.099 209.32C342.099 208.296 342.184 207.443 342.355 206.76H340.435C340.264 206.035 340.179 205.181 340.179 204.2C340.179 203.176 340.264 202.323 340.435 201.64H342.355C342.184 200.915 342.099 200.061 342.099 199.08C342.099 198.056 342.184 197.203 342.355 196.52H345.555C345.384 195.795 345.299 194.941 345.299 193.96C345.299 192.936 345.384 192.083 345.555 191.4H358.355C358.526 192.083 358.611 192.936 358.611 193.96C358.611 194.941 358.526 195.795 358.355 196.52H360.915C361.086 197.203 361.171 198.056 361.171 199.08ZM355.795 201.64C355.624 200.915 355.539 200.061 355.539 199.08C355.539 198.056 355.624 197.203 355.795 196.52H347.475C347.646 197.203 347.731 198.056 347.731 199.08C347.731 200.061 347.646 200.915 347.475 201.64H355.795ZM386.54 186.28C386.711 186.963 386.796 187.816 386.796 188.84C386.796 189.821 386.711 190.675 386.54 191.4C386.711 192.083 386.796 192.936 386.796 193.96C386.796 194.941 386.711 195.795 386.54 196.52C386.711 197.203 386.796 198.056 386.796 199.08C386.796 200.061 386.711 200.915 386.54 201.64C386.711 202.323 386.796 203.176 386.796 204.2C386.796 205.181 386.711 206.035 386.54 206.76C386.711 207.443 386.796 208.296 386.796 209.32C386.796 210.301 386.711 211.155 386.54 211.88C386.711 212.563 386.796 213.416 386.796 214.44C386.796 215.421 386.711 216.275 386.54 217H381.42C381.249 216.275 381.164 215.421 381.164 214.44C381.164 213.416 381.249 212.563 381.42 211.88H379.5C379.329 211.155 379.244 210.301 379.244 209.32C379.244 208.296 379.329 207.443 379.5 206.76H381.42C381.249 206.035 381.164 205.181 381.164 204.2C381.164 203.176 381.249 202.323 381.42 201.64H379.5C379.329 200.915 379.244 200.061 379.244 199.08C379.244 198.056 379.329 197.203 379.5 196.52H381.42C381.249 195.795 381.164 194.941 381.164 193.96C381.164 192.936 381.249 192.083 381.42 191.4C381.249 190.675 381.164 189.821 381.164 188.84C381.164 187.816 381.249 186.963 381.42 186.28C381.249 185.555 381.164 184.701 381.164 183.72C381.164 182.696 381.249 181.843 381.42 181.16H386.54C386.711 181.843 386.796 182.696 386.796 183.72C386.796 184.701 386.711 185.555 386.54 186.28ZM378.476 193.96C378.476 194.941 378.391 195.795 378.22 196.52H371.82C371.991 197.203 372.076 198.056 372.076 199.08C372.076 200.061 371.991 200.915 371.82 201.64H369.9C370.071 202.323 370.156 203.176 370.156 204.2C370.156 205.181 370.071 206.035 369.9 206.76H371.82C371.991 207.443 372.076 208.296 372.076 209.32C372.076 210.301 371.991 211.155 371.82 211.88H378.22C378.391 212.563 378.476 213.416 378.476 214.44C378.476 215.421 378.391 216.275 378.22 217H371.18C371.009 216.275 370.924 215.421 370.924 214.44C370.924 213.416 371.009 212.563 371.18 211.88H367.98C367.809 211.155 367.724 210.301 367.724 209.32C367.724 208.296 367.809 207.443 367.98 206.76H366.06C365.889 206.035 365.804 205.181 365.804 204.2C365.804 203.176 365.889 202.323 366.06 201.64H367.98C367.809 200.915 367.724 200.061 367.724 199.08C367.724 198.056 367.809 197.203 367.98 196.52H371.18C371.009 195.795 370.924 194.941 370.924 193.96C370.924 192.936 371.009 192.083 371.18 191.4H378.22C378.391 192.083 378.476 192.936 378.476 193.96ZM405.125 211.88C405.296 212.563 405.381 213.416 405.381 214.44C405.381 215.421 405.296 216.275 405.125 217C405.296 217.683 405.381 218.536 405.381 219.56C405.381 220.541 405.296 221.395 405.125 222.12H402.565C402.736 222.803 402.821 223.656 402.821 224.68C402.821 225.661 402.736 226.515 402.565 227.24H398.725C398.554 226.515 398.469 225.661 398.469 224.68C398.469 223.656 398.554 222.803 398.725 222.12H401.285C401.114 221.395 401.029 220.541 401.029 219.56C401.029 218.536 401.114 217.683 401.285 217H398.725C398.554 216.275 398.469 215.421 398.469 214.44C398.469 213.416 398.554 212.563 398.725 211.88C398.554 211.155 398.469 210.301 398.469 209.32C398.469 208.296 398.554 207.443 398.725 206.76H405.125C405.296 207.443 405.381 208.296 405.381 209.32C405.381 210.301 405.296 211.155 405.125 211.88ZM79.04 270.76C79.2107 271.443 79.296 272.296 79.296 273.32C79.296 274.301 79.2107 275.155 79.04 275.88H76.48C76.6507 276.563 76.736 277.416 76.736 278.44C76.736 279.421 76.6507 280.275 76.48 281H63.68C63.5093 280.275 63.424 279.421 63.424 278.44C63.424 277.416 63.5093 276.563 63.68 275.88H61.12C60.9493 275.155 60.864 274.301 60.864 273.32C60.864 272.296 60.9493 271.443 61.12 270.76H58.56C58.3893 270.035 58.304 269.181 58.304 268.2C58.304 267.176 58.3893 266.323 58.56 265.64H61.12C60.9493 264.915 60.864 264.061 60.864 263.08C60.864 262.056 60.9493 261.203 61.12 260.52H63.68C63.5093 259.795 63.424 258.941 63.424 257.96C63.424 256.936 63.5093 256.083 63.68 255.4H76.48C76.6507 256.083 76.736 256.936 76.736 257.96C76.736 258.941 76.6507 259.795 76.48 260.52H79.04C79.2107 261.203 79.296 262.056 79.296 263.08C79.296 264.061 79.2107 264.915 79.04 265.64H73.92C73.7493 264.915 73.664 264.061 73.664 263.08C73.664 262.056 73.7493 261.203 73.92 260.52H66.24C66.4107 261.203 66.496 262.056 66.496 263.08C66.496 264.061 66.4107 264.915 66.24 265.64H63.68C63.8507 266.323 63.936 267.176 63.936 268.2C63.936 269.181 63.8507 270.035 63.68 270.76H66.24C66.4107 271.443 66.496 272.296 66.496 273.32C66.496 274.301 66.4107 275.155 66.24 275.88H73.92C73.7493 275.155 73.664 274.301 73.664 273.32C73.664 272.296 73.7493 271.443 73.92 270.76H79.04ZM104.665 275.88C104.836 276.563 104.921 277.416 104.921 278.44C104.921 279.421 104.836 280.275 104.665 281H99.545C99.3743 280.275 99.289 279.421 99.289 278.44C99.289 277.416 99.3743 276.563 99.545 275.88H96.985C96.8143 275.155 96.729 274.301 96.729 273.32C96.729 272.296 96.8143 271.443 96.985 270.76H89.305C89.4757 271.443 89.561 272.296 89.561 273.32C89.561 274.301 89.4757 275.155 89.305 275.88H96.985C97.1557 276.563 97.241 277.416 97.241 278.44C97.241 279.421 97.1557 280.275 96.985 281H86.745C86.5743 280.275 86.489 279.421 86.489 278.44C86.489 277.416 86.5743 276.563 86.745 275.88H84.185C84.0143 275.155 83.929 274.301 83.929 273.32C83.929 272.296 84.0143 271.443 84.185 270.76H86.745C86.5743 270.035 86.489 269.181 86.489 268.2C86.489 267.176 86.5743 266.323 86.745 265.64H96.985C96.8143 264.915 96.729 264.061 96.729 263.08C96.729 262.056 96.8143 261.203 96.985 260.52H88.025C87.8543 259.795 87.769 258.941 87.769 257.96C87.769 256.936 87.8543 256.083 88.025 255.4H99.545C99.7157 256.083 99.801 256.936 99.801 257.96C99.801 258.941 99.7157 259.795 99.545 260.52H102.105C102.276 261.203 102.361 262.056 102.361 263.08C102.361 264.061 102.276 264.915 102.105 265.64C102.276 266.323 102.361 267.176 102.361 268.2C102.361 269.181 102.276 270.035 102.105 270.76C102.276 271.443 102.361 272.296 102.361 273.32C102.361 274.301 102.276 275.155 102.105 275.88H104.665ZM127.73 275.88C127.901 276.563 127.986 277.416 127.986 278.44C127.986 279.421 127.901 280.275 127.73 281H112.37C112.199 280.275 112.114 279.421 112.114 278.44C112.114 277.416 112.199 276.563 112.37 275.88H117.49C117.319 275.155 117.234 274.301 117.234 273.32C117.234 272.296 117.319 271.443 117.49 270.76C117.319 270.035 117.234 269.181 117.234 268.2C117.234 267.176 117.319 266.323 117.49 265.64C117.319 264.915 117.234 264.061 117.234 263.08C117.234 262.056 117.319 261.203 117.49 260.52C117.319 259.795 117.234 258.941 117.234 257.96C117.234 256.936 117.319 256.083 117.49 255.4C117.319 254.675 117.234 253.821 117.234 252.84C117.234 251.816 117.319 250.963 117.49 250.28H113.65C113.479 249.555 113.394 248.701 113.394 247.72C113.394 246.696 113.479 245.843 113.65 245.16H122.61C122.781 245.843 122.866 246.696 122.866 247.72C122.866 248.701 122.781 249.555 122.61 250.28C122.781 250.963 122.866 251.816 122.866 252.84C122.866 253.821 122.781 254.675 122.61 255.4C122.781 256.083 122.866 256.936 122.866 257.96C122.866 258.941 122.781 259.795 122.61 260.52C122.781 261.203 122.866 262.056 122.866 263.08C122.866 264.061 122.781 264.915 122.61 265.64C122.781 266.323 122.866 267.176 122.866 268.2C122.866 269.181 122.781 270.035 122.61 270.76C122.781 271.443 122.866 272.296 122.866 273.32C122.866 274.301 122.781 275.155 122.61 275.88H127.73ZM153.355 275.88C153.526 276.563 153.611 277.416 153.611 278.44C153.611 279.421 153.526 280.275 153.355 281H137.995C137.824 280.275 137.739 279.421 137.739 278.44C137.739 277.416 137.824 276.563 137.995 275.88H143.115C142.944 275.155 142.859 274.301 142.859 273.32C142.859 272.296 142.944 271.443 143.115 270.76C142.944 270.035 142.859 269.181 142.859 268.2C142.859 267.176 142.944 266.323 143.115 265.64C142.944 264.915 142.859 264.061 142.859 263.08C142.859 262.056 142.944 261.203 143.115 260.52C142.944 259.795 142.859 258.941 142.859 257.96C142.859 256.936 142.944 256.083 143.115 255.4C142.944 254.675 142.859 253.821 142.859 252.84C142.859 251.816 142.944 250.963 143.115 250.28H139.275C139.104 249.555 139.019 248.701 139.019 247.72C139.019 246.696 139.104 245.843 139.275 245.16H148.235C148.406 245.843 148.491 246.696 148.491 247.72C148.491 248.701 148.406 249.555 148.235 250.28C148.406 250.963 148.491 251.816 148.491 252.84C148.491 253.821 148.406 254.675 148.235 255.4C148.406 256.083 148.491 256.936 148.491 257.96C148.491 258.941 148.406 259.795 148.235 260.52C148.406 261.203 148.491 262.056 148.491 263.08C148.491 264.061 148.406 264.915 148.235 265.64C148.406 266.323 148.491 267.176 148.491 268.2C148.491 269.181 148.406 270.035 148.235 270.76C148.406 271.443 148.491 272.296 148.491 273.32C148.491 274.301 148.406 275.155 148.235 275.88H153.355ZM194.365 250.28C194.194 249.555 194.109 248.701 194.109 247.72C194.109 246.696 194.194 245.843 194.365 245.16H199.485C199.656 245.843 199.741 246.696 199.741 247.72C199.741 248.701 199.656 249.555 199.485 250.28H194.365ZM204.605 275.88C204.776 276.563 204.861 277.416 204.861 278.44C204.861 279.421 204.776 280.275 204.605 281H189.245C189.074 280.275 188.989 279.421 188.989 278.44C188.989 277.416 189.074 276.563 189.245 275.88H194.365C194.194 275.155 194.109 274.301 194.109 273.32C194.109 272.296 194.194 271.443 194.365 270.76C194.194 270.035 194.109 269.181 194.109 268.2C194.109 267.176 194.194 266.323 194.365 265.64C194.194 264.915 194.109 264.061 194.109 263.08C194.109 262.056 194.194 261.203 194.365 260.52H190.525C190.354 259.795 190.269 258.941 190.269 257.96C190.269 256.936 190.354 256.083 190.525 255.4H199.485C199.656 256.083 199.741 256.936 199.741 257.96C199.741 258.941 199.656 259.795 199.485 260.52C199.656 261.203 199.741 262.056 199.741 263.08C199.741 264.061 199.656 264.915 199.485 265.64C199.656 266.323 199.741 267.176 199.741 268.2C199.741 269.181 199.656 270.035 199.485 270.76C199.656 271.443 199.741 272.296 199.741 273.32C199.741 274.301 199.656 275.155 199.485 275.88H204.605ZM230.23 275.88C230.401 276.563 230.486 277.416 230.486 278.44C230.486 279.421 230.401 280.275 230.23 281H219.99C219.819 280.275 219.734 279.421 219.734 278.44C219.734 277.416 219.819 276.563 219.99 275.88H217.43C217.259 275.155 217.174 274.301 217.174 273.32C217.174 272.296 217.259 271.443 217.43 270.76C217.259 270.035 217.174 269.181 217.174 268.2C217.174 267.176 217.259 266.323 217.43 265.64C217.259 264.915 217.174 264.061 217.174 263.08C217.174 262.056 217.259 261.203 217.43 260.52H212.31C212.139 259.795 212.054 258.941 212.054 257.96C212.054 256.936 212.139 256.083 212.31 255.4H217.43C217.259 254.675 217.174 253.821 217.174 252.84C217.174 251.816 217.259 250.963 217.43 250.28C217.259 249.555 217.174 248.701 217.174 247.72C217.174 246.696 217.259 245.843 217.43 245.16H222.55C222.721 245.843 222.806 246.696 222.806 247.72C222.806 248.701 222.721 249.555 222.55 250.28C222.721 250.963 222.806 251.816 222.806 252.84C222.806 253.821 222.721 254.675 222.55 255.4H230.23C230.401 256.083 230.486 256.936 230.486 257.96C230.486 258.941 230.401 259.795 230.23 260.52H222.55C222.721 261.203 222.806 262.056 222.806 263.08C222.806 264.061 222.721 264.915 222.55 265.64C222.721 266.323 222.806 267.176 222.806 268.2C222.806 269.181 222.721 270.035 222.55 270.76C222.721 271.443 222.806 272.296 222.806 273.32C222.806 274.301 222.721 275.155 222.55 275.88H230.23ZM271.24 250.28C271.069 249.555 270.984 248.701 270.984 247.72C270.984 246.696 271.069 245.843 271.24 245.16H276.36C276.531 245.843 276.616 246.696 276.616 247.72C276.616 248.701 276.531 249.555 276.36 250.28H271.24ZM281.48 275.88C281.651 276.563 281.736 277.416 281.736 278.44C281.736 279.421 281.651 280.275 281.48 281H266.12C265.949 280.275 265.864 279.421 265.864 278.44C265.864 277.416 265.949 276.563 266.12 275.88H271.24C271.069 275.155 270.984 274.301 270.984 273.32C270.984 272.296 271.069 271.443 271.24 270.76C271.069 270.035 270.984 269.181 270.984 268.2C270.984 267.176 271.069 266.323 271.24 265.64C271.069 264.915 270.984 264.061 270.984 263.08C270.984 262.056 271.069 261.203 271.24 260.52H267.4C267.229 259.795 267.144 258.941 267.144 257.96C267.144 256.936 267.229 256.083 267.4 255.4H276.36C276.531 256.083 276.616 256.936 276.616 257.96C276.616 258.941 276.531 259.795 276.36 260.52C276.531 261.203 276.616 262.056 276.616 263.08C276.616 264.061 276.531 264.915 276.36 265.64C276.531 266.323 276.616 267.176 276.616 268.2C276.616 269.181 276.531 270.035 276.36 270.76C276.531 271.443 276.616 272.296 276.616 273.32C276.616 274.301 276.531 275.155 276.36 275.88H281.48ZM307.105 275.88C307.276 276.563 307.361 277.416 307.361 278.44C307.361 279.421 307.276 280.275 307.105 281H296.865C296.694 280.275 296.609 279.421 296.609 278.44C296.609 277.416 296.694 276.563 296.865 275.88H294.305C294.134 275.155 294.049 274.301 294.049 273.32C294.049 272.296 294.134 271.443 294.305 270.76C294.134 270.035 294.049 269.181 294.049 268.2C294.049 267.176 294.134 266.323 294.305 265.64C294.134 264.915 294.049 264.061 294.049 263.08C294.049 262.056 294.134 261.203 294.305 260.52H289.185C289.014 259.795 288.929 258.941 288.929 257.96C288.929 256.936 289.014 256.083 289.185 255.4H294.305C294.134 254.675 294.049 253.821 294.049 252.84C294.049 251.816 294.134 250.963 294.305 250.28C294.134 249.555 294.049 248.701 294.049 247.72C294.049 246.696 294.134 245.843 294.305 245.16H299.425C299.596 245.843 299.681 246.696 299.681 247.72C299.681 248.701 299.596 249.555 299.425 250.28C299.596 250.963 299.681 251.816 299.681 252.84C299.681 253.821 299.596 254.675 299.425 255.4H307.105C307.276 256.083 307.361 256.936 307.361 257.96C307.361 258.941 307.276 259.795 307.105 260.52H299.425C299.596 261.203 299.681 262.056 299.681 263.08C299.681 264.061 299.596 264.915 299.425 265.64C299.596 266.323 299.681 267.176 299.681 268.2C299.681 269.181 299.596 270.035 299.425 270.76C299.596 271.443 299.681 272.296 299.681 273.32C299.681 274.301 299.596 275.155 299.425 275.88H307.105ZM79.296 321.96C79.296 322.941 79.2107 323.795 79.04 324.52H77.12C77.2907 325.203 77.376 326.056 77.376 327.08C77.376 328.061 77.2907 328.915 77.12 329.64H75.2C75.3707 330.323 75.456 331.176 75.456 332.2C75.456 333.181 75.3707 334.035 75.2 334.76H73.92C74.0907 335.443 74.176 336.296 74.176 337.32C74.176 338.301 74.0907 339.155 73.92 339.88H71.36C71.5307 340.563 71.616 341.416 71.616 342.44C71.616 343.421 71.5307 344.275 71.36 345H66.24C66.0693 344.275 65.984 343.421 65.984 342.44C65.984 341.416 66.0693 340.563 66.24 339.88H63.68C63.5093 339.155 63.424 338.301 63.424 337.32C63.424 336.296 63.5093 335.443 63.68 334.76H62.4C62.2293 334.035 62.144 333.181 62.144 332.2C62.144 331.176 62.2293 330.323 62.4 329.64H60.48C60.3093 328.915 60.224 328.061 60.224 327.08C60.224 326.056 60.3093 325.203 60.48 324.52H58.56C58.3893 323.795 58.304 322.941 58.304 321.96C58.304 320.936 58.3893 320.083 58.56 319.4H63.68C63.8507 320.083 63.936 320.936 63.936 321.96C63.936 322.941 63.8507 323.795 63.68 324.52H65.6C65.7707 325.203 65.856 326.056 65.856 327.08C65.856 328.061 65.7707 328.915 65.6 329.64H67.52C67.6907 330.323 67.776 331.176 67.776 332.2C67.776 333.181 67.6907 334.035 67.52 334.76H70.08C69.9093 334.035 69.824 333.181 69.824 332.2C69.824 331.176 69.9093 330.323 70.08 329.64H72C71.8293 328.915 71.744 328.061 71.744 327.08C71.744 326.056 71.8293 325.203 72 324.52H73.92C73.7493 323.795 73.664 322.941 73.664 321.96C73.664 320.936 73.7493 320.083 73.92 319.4H79.04C79.2107 320.083 79.296 320.936 79.296 321.96ZM104.921 327.08C104.921 328.061 104.836 328.915 104.665 329.64C104.836 330.323 104.921 331.176 104.921 332.2C104.921 333.181 104.836 334.035 104.665 334.76H91.225C91.3957 335.443 91.481 336.296 91.481 337.32C91.481 338.301 91.3957 339.155 91.225 339.88H102.105C102.276 340.563 102.361 341.416 102.361 342.44C102.361 343.421 102.276 344.275 102.105 345H89.305C89.1343 344.275 89.049 343.421 89.049 342.44C89.049 341.416 89.1343 340.563 89.305 339.88H86.105C85.9343 339.155 85.849 338.301 85.849 337.32C85.849 336.296 85.9343 335.443 86.105 334.76H84.185C84.0143 334.035 83.929 333.181 83.929 332.2C83.929 331.176 84.0143 330.323 84.185 329.64H86.105C85.9343 328.915 85.849 328.061 85.849 327.08C85.849 326.056 85.9343 325.203 86.105 324.52H89.305C89.1343 323.795 89.049 322.941 89.049 321.96C89.049 320.936 89.1343 320.083 89.305 319.4H102.105C102.276 320.083 102.361 320.936 102.361 321.96C102.361 322.941 102.276 323.795 102.105 324.52H104.665C104.836 325.203 104.921 326.056 104.921 327.08ZM99.545 329.64C99.3743 328.915 99.289 328.061 99.289 327.08C99.289 326.056 99.3743 325.203 99.545 324.52H91.225C91.3957 325.203 91.481 326.056 91.481 327.08C91.481 328.061 91.3957 328.915 91.225 329.64H99.545ZM130.29 324.52C130.461 325.203 130.546 326.056 130.546 327.08C130.546 328.061 130.461 328.915 130.29 329.64H125.17C124.999 328.915 124.914 328.061 124.914 327.08C124.914 326.056 124.999 325.203 125.17 324.52H120.69C120.861 325.203 120.946 326.056 120.946 327.08C120.946 328.061 120.861 328.915 120.69 329.64H118.77C118.941 330.323 119.026 331.176 119.026 332.2C119.026 333.181 118.941 334.035 118.77 334.76C118.941 335.443 119.026 336.296 119.026 337.32C119.026 338.301 118.941 339.155 118.77 339.88H122.61C122.781 340.563 122.866 341.416 122.866 342.44C122.866 343.421 122.781 344.275 122.61 345H109.81C109.639 344.275 109.554 343.421 109.554 342.44C109.554 341.416 109.639 340.563 109.81 339.88H113.65C113.479 339.155 113.394 338.301 113.394 337.32C113.394 336.296 113.479 335.443 113.65 334.76C113.479 334.035 113.394 333.181 113.394 332.2C113.394 331.176 113.479 330.323 113.65 329.64C113.479 328.915 113.394 328.061 113.394 327.08C113.394 326.056 113.479 325.203 113.65 324.52H109.81C109.639 323.795 109.554 322.941 109.554 321.96C109.554 320.936 109.639 320.083 109.81 319.4H116.21C116.381 320.083 116.466 320.936 116.466 321.96C116.466 322.941 116.381 323.795 116.21 324.52H118.77C118.599 323.795 118.514 322.941 118.514 321.96C118.514 320.936 118.599 320.083 118.77 319.4H128.37C128.541 320.083 128.626 320.936 128.626 321.96C128.626 322.941 128.541 323.795 128.37 324.52H130.29ZM154.891 337.32C154.891 338.301 154.806 339.155 154.635 339.88H152.075C152.246 340.563 152.331 341.416 152.331 342.44C152.331 343.421 152.246 344.275 152.075 345H137.995C137.824 344.275 137.739 343.421 137.739 342.44C137.739 341.416 137.824 340.563 137.995 339.88H149.515C149.344 339.155 149.259 338.301 149.259 337.32C149.259 336.296 149.344 335.443 149.515 334.76H139.275C139.104 334.035 139.019 333.181 139.019 332.2C139.019 331.176 139.104 330.323 139.275 329.64H136.715C136.544 328.915 136.459 328.061 136.459 327.08C136.459 326.056 136.544 325.203 136.715 324.52H139.275C139.104 323.795 139.019 322.941 139.019 321.96C139.019 320.936 139.104 320.083 139.275 319.4H153.355C153.526 320.083 153.611 320.936 153.611 321.96C153.611 322.941 153.526 323.795 153.355 324.52H141.835C142.006 325.203 142.091 326.056 142.091 327.08C142.091 328.061 142.006 328.915 141.835 329.64H152.075C152.246 330.323 152.331 331.176 152.331 332.2C152.331 333.181 152.246 334.035 152.075 334.76H154.635C154.806 335.443 154.891 336.296 154.891 337.32ZM168.74 314.28C168.569 313.555 168.484 312.701 168.484 311.72C168.484 310.696 168.569 309.843 168.74 309.16H173.86C174.031 309.843 174.116 310.696 174.116 311.72C174.116 312.701 174.031 313.555 173.86 314.28H168.74ZM178.98 339.88C179.151 340.563 179.236 341.416 179.236 342.44C179.236 343.421 179.151 344.275 178.98 345H163.62C163.449 344.275 163.364 343.421 163.364 342.44C163.364 341.416 163.449 340.563 163.62 339.88H168.74C168.569 339.155 168.484 338.301 168.484 337.32C168.484 336.296 168.569 335.443 168.74 334.76C168.569 334.035 168.484 333.181 168.484 332.2C168.484 331.176 168.569 330.323 168.74 329.64C168.569 328.915 168.484 328.061 168.484 327.08C168.484 326.056 168.569 325.203 168.74 324.52H164.9C164.729 323.795 164.644 322.941 164.644 321.96C164.644 320.936 164.729 320.083 164.9 319.4H173.86C174.031 320.083 174.116 320.936 174.116 321.96C174.116 322.941 174.031 323.795 173.86 324.52C174.031 325.203 174.116 326.056 174.116 327.08C174.116 328.061 174.031 328.915 173.86 329.64C174.031 330.323 174.116 331.176 174.116 332.2C174.116 333.181 174.031 334.035 173.86 334.76C174.031 335.443 174.116 336.296 174.116 337.32C174.116 338.301 174.031 339.155 173.86 339.88H178.98ZM207.421 332.2C207.421 333.181 207.336 334.035 207.165 334.76H205.245C205.416 335.443 205.501 336.296 205.501 337.32C205.501 338.301 205.416 339.155 205.245 339.88H202.045C202.216 340.563 202.301 341.416 202.301 342.44C202.301 343.421 202.216 344.275 202.045 345H191.805C191.634 344.275 191.549 343.421 191.549 342.44C191.549 341.416 191.634 340.563 191.805 339.88H188.605C188.434 339.155 188.349 338.301 188.349 337.32C188.349 336.296 188.434 335.443 188.605 334.76H186.685C186.514 334.035 186.429 333.181 186.429 332.2C186.429 331.176 186.514 330.323 186.685 329.64H188.605C188.434 328.915 188.349 328.061 188.349 327.08C188.349 326.056 188.434 325.203 188.605 324.52H191.805C191.634 323.795 191.549 322.941 191.549 321.96C191.549 320.936 191.634 320.083 191.805 319.4H202.045C202.216 320.083 202.301 320.936 202.301 321.96C202.301 322.941 202.216 323.795 202.045 324.52H205.245C205.416 325.203 205.501 326.056 205.501 327.08C205.501 328.061 205.416 328.915 205.245 329.64H207.165C207.336 330.323 207.421 331.176 207.421 332.2ZM202.045 334.76C201.874 334.035 201.789 333.181 201.789 332.2C201.789 331.176 201.874 330.323 202.045 329.64H200.125C199.954 328.915 199.869 328.061 199.869 327.08C199.869 326.056 199.954 325.203 200.125 324.52H193.725C193.896 325.203 193.981 326.056 193.981 327.08C193.981 328.061 193.896 328.915 193.725 329.64H191.805C191.976 330.323 192.061 331.176 192.061 332.2C192.061 333.181 191.976 334.035 191.805 334.76H193.725C193.896 335.443 193.981 336.296 193.981 337.32C193.981 338.301 193.896 339.155 193.725 339.88H200.125C199.954 339.155 199.869 338.301 199.869 337.32C199.869 336.296 199.954 335.443 200.125 334.76H202.045ZM217.046 321.96C217.046 322.941 216.961 323.795 216.79 324.52H219.35C219.521 325.203 219.606 326.056 219.606 327.08C219.606 328.061 219.521 328.915 219.35 329.64H217.43C217.601 330.323 217.686 331.176 217.686 332.2C217.686 333.181 217.601 334.035 217.43 334.76C217.601 335.443 217.686 336.296 217.686 337.32C217.686 338.301 217.601 339.155 217.43 339.88C217.601 340.563 217.686 341.416 217.686 342.44C217.686 343.421 217.601 344.275 217.43 345H212.31C212.139 344.275 212.054 343.421 212.054 342.44C212.054 341.416 212.139 340.563 212.31 339.88C212.139 339.155 212.054 338.301 212.054 337.32C212.054 336.296 212.139 335.443 212.31 334.76C212.139 334.035 212.054 333.181 212.054 332.2C212.054 331.176 212.139 330.323 212.31 329.64C212.139 328.915 212.054 328.061 212.054 327.08C212.054 326.056 212.139 325.203 212.31 324.52C212.139 323.795 212.054 322.941 212.054 321.96C212.054 320.936 212.139 320.083 212.31 319.4H216.79C216.961 320.083 217.046 320.936 217.046 321.96ZM232.79 329.64C232.961 330.323 233.046 331.176 233.046 332.2C233.046 333.181 232.961 334.035 232.79 334.76C232.961 335.443 233.046 336.296 233.046 337.32C233.046 338.301 232.961 339.155 232.79 339.88C232.961 340.563 233.046 341.416 233.046 342.44C233.046 343.421 232.961 344.275 232.79 345H227.67C227.499 344.275 227.414 343.421 227.414 342.44C227.414 341.416 227.499 340.563 227.67 339.88C227.499 339.155 227.414 338.301 227.414 337.32C227.414 336.296 227.499 335.443 227.67 334.76C227.499 334.035 227.414 333.181 227.414 332.2C227.414 331.176 227.499 330.323 227.67 329.64C227.499 328.915 227.414 328.061 227.414 327.08C227.414 326.056 227.499 325.203 227.67 324.52H219.35C219.179 323.795 219.094 322.941 219.094 321.96C219.094 320.936 219.179 320.083 219.35 319.4H229.59C229.761 320.083 229.846 320.936 229.846 321.96C229.846 322.941 229.761 323.795 229.59 324.52H232.79C232.961 325.203 233.046 326.056 233.046 327.08C233.046 328.061 232.961 328.915 232.79 329.64ZM281.48 339.88C281.651 340.563 281.736 341.416 281.736 342.44C281.736 343.421 281.651 344.275 281.48 345H266.12C265.949 344.275 265.864 343.421 265.864 342.44C265.864 341.416 265.949 340.563 266.12 339.88H271.24C271.069 339.155 270.984 338.301 270.984 337.32C270.984 336.296 271.069 335.443 271.24 334.76C271.069 334.035 270.984 333.181 270.984 332.2C270.984 331.176 271.069 330.323 271.24 329.64C271.069 328.915 270.984 328.061 270.984 327.08C270.984 326.056 271.069 325.203 271.24 324.52C271.069 323.795 270.984 322.941 270.984 321.96C270.984 320.936 271.069 320.083 271.24 319.4H267.4C267.229 318.675 267.144 317.821 267.144 316.84C267.144 315.816 267.229 314.963 267.4 314.28H271.24C271.069 313.555 270.984 312.701 270.984 311.72C270.984 310.696 271.069 309.843 271.24 309.16H276.36C276.531 309.843 276.616 310.696 276.616 311.72C276.616 312.701 276.531 313.555 276.36 314.28C276.531 314.963 276.616 315.816 276.616 316.84C276.616 317.821 276.531 318.675 276.36 319.4C276.531 320.083 276.616 320.936 276.616 321.96C276.616 322.941 276.531 323.795 276.36 324.52C276.531 325.203 276.616 326.056 276.616 327.08C276.616 328.061 276.531 328.915 276.36 329.64C276.531 330.323 276.616 331.176 276.616 332.2C276.616 333.181 276.531 334.035 276.36 334.76C276.531 335.443 276.616 336.296 276.616 337.32C276.616 338.301 276.531 339.155 276.36 339.88H281.48ZM302.881 337.32C302.881 338.301 302.796 339.155 302.625 339.88C302.796 340.563 302.881 341.416 302.881 342.44C302.881 343.421 302.796 344.275 302.625 345H296.225C296.054 344.275 295.969 343.421 295.969 342.44C295.969 341.416 296.054 340.563 296.225 339.88C296.054 339.155 295.969 338.301 295.969 337.32C295.969 336.296 296.054 335.443 296.225 334.76H302.625C302.796 335.443 302.881 336.296 302.881 337.32ZM328.506 311.72C328.506 312.701 328.421 313.555 328.25 314.28H321.85C321.679 313.555 321.594 312.701 321.594 311.72C321.594 310.696 321.679 309.843 321.85 309.16H328.25C328.421 309.843 328.506 310.696 328.506 311.72ZM321.85 334.76C322.021 335.443 322.106 336.296 322.106 337.32C322.106 338.301 322.021 339.155 321.85 339.88H318.65C318.479 339.155 318.394 338.301 318.394 337.32C318.394 336.296 318.479 335.443 318.65 334.76H316.73C316.559 334.035 316.474 333.181 316.474 332.2C316.474 331.176 316.559 330.323 316.73 329.64C316.559 328.915 316.474 328.061 316.474 327.08C316.474 326.056 316.559 325.203 316.73 324.52C316.559 323.795 316.474 322.941 316.474 321.96C316.474 320.936 316.559 320.083 316.73 319.4H318.65C318.479 318.675 318.394 317.821 318.394 316.84C318.394 315.816 318.479 314.963 318.65 314.28H321.85C322.021 314.963 322.106 315.816 322.106 316.84C322.106 317.821 322.021 318.675 321.85 319.4C322.021 320.083 322.106 320.936 322.106 321.96C322.106 322.941 322.021 323.795 321.85 324.52C322.021 325.203 322.106 326.056 322.106 327.08C322.106 328.061 322.021 328.915 321.85 329.64C322.021 330.323 322.106 331.176 322.106 332.2C322.106 333.181 322.021 334.035 321.85 334.76ZM333.37 324.52C333.541 325.203 333.626 326.056 333.626 327.08C333.626 328.061 333.541 328.915 333.37 329.64C333.541 330.323 333.626 331.176 333.626 332.2C333.626 333.181 333.541 334.035 333.37 334.76H331.45C331.621 335.443 331.706 336.296 331.706 337.32C331.706 338.301 331.621 339.155 331.45 339.88H328.25C328.079 339.155 327.994 338.301 327.994 337.32C327.994 336.296 328.079 335.443 328.25 334.76C328.079 334.035 327.994 333.181 327.994 332.2C327.994 331.176 328.079 330.323 328.25 329.64C328.079 328.915 327.994 328.061 327.994 327.08C327.994 326.056 328.079 325.203 328.25 324.52C328.079 323.795 327.994 322.941 327.994 321.96C327.994 320.936 328.079 320.083 328.25 319.4C328.079 318.675 327.994 317.821 327.994 316.84C327.994 315.816 328.079 314.963 328.25 314.28H331.45C331.621 314.963 331.706 315.816 331.706 316.84C331.706 317.821 331.621 318.675 331.45 319.4H333.37C333.541 320.083 333.626 320.936 333.626 321.96C333.626 322.941 333.541 323.795 333.37 324.52ZM321.594 342.44C321.594 341.416 321.679 340.563 321.85 339.88H328.25C328.421 340.563 328.506 341.416 328.506 342.44C328.506 343.421 328.421 344.275 328.25 345H321.85C321.679 344.275 321.594 343.421 321.594 342.44Z" fill="black"/>
<defs>
<filter id="filter0_d_26_6" x="0" y="0" width="484" height="468" filterUnits="userSpaceOnUse" color-interpolation-filters="sRGB">
<feFlood flood-opacity="0" result="BackgroundImageFix"/>
<feColorMatrix in="SourceAlpha" type="matrix" values="0 0 0 0 0 0 0 0 0 0 0 0 0 0 0 0 0 0 127 0" result="hardAlpha"/>
<feOffset dx="5" dy="6"/>
<feGaussianBlur stdDeviation="4"/>
<feComposite in2="hardAlpha" operator="out"/>
<feColorMatrix type="matrix" values="0 0 0 0 0 0 0 0 0 0 0 0 0 0 0 0 0 0 0.25 0"/>
<feBlend mode="normal" in2="BackgroundImageFix" result="effect1_dropShadow_26_6"/>
<feBlend mode="normal" in="SourceGraphic" in2="effect1_dropShadow_26_6" result="shape"/>
</filter>
</defs>
</svg>
